# Dark Story prop: tree_dead (generated by tools/make_props.py)
mtllib props.mtl
o tree_dead
v 0.27886 0.00000 0.00000
v 0.19396 0.00000 0.19396
v 0.11913 1.50000 0.11913
v 0.27886 0.00000 0.00000
v 0.11913 1.50000 0.11913
v 0.17115 1.50000 0.00000
v 0.19396 0.00000 0.19396
v 0.00000 0.00000 0.27954
v 0.00000 1.50000 0.17160
v 0.19396 0.00000 0.19396
v 0.00000 1.50000 0.17160
v 0.11913 1.50000 0.11913
v 0.00000 0.00000 0.27954
v -0.19269 0.00000 0.19269
v -0.11830 1.50000 0.11830
v 0.00000 0.00000 0.27954
v -0.11830 1.50000 0.11830
v 0.00000 1.50000 0.17160
v -0.19269 0.00000 0.19269
v -0.28081 0.00000 0.00000
v -0.17243 1.50000 0.00000
v -0.19269 0.00000 0.19269
v -0.17243 1.50000 0.00000
v -0.11830 1.50000 0.11830
v -0.28081 0.00000 0.00000
v -0.19309 0.00000 -0.19309
v -0.11855 1.50000 -0.11855
v -0.28081 0.00000 0.00000
v -0.11855 1.50000 -0.11855
v -0.17243 1.50000 0.00000
v -0.19309 0.00000 -0.19309
v -0.00000 0.00000 -0.27859
v -0.00000 1.50000 -0.17101
v -0.19309 0.00000 -0.19309
v -0.00000 1.50000 -0.17101
v -0.11855 1.50000 -0.11855
v -0.00000 0.00000 -0.27859
v 0.19476 0.00000 -0.19476
v 0.11962 1.50000 -0.11962
v -0.00000 0.00000 -0.27859
v 0.11962 1.50000 -0.11962
v -0.00000 1.50000 -0.17101
v 0.19476 0.00000 -0.19476
v 0.27886 0.00000 0.00000
v 0.17115 1.50000 0.00000
v 0.19476 0.00000 -0.19476
v 0.17115 1.50000 0.00000
v 0.11962 1.50000 -0.11962
v 0.16931 1.50000 0.00000
v 0.11776 1.50000 0.11776
v 0.07709 2.80000 0.07709
v 0.16931 1.50000 0.00000
v 0.07709 2.80000 0.07709
v 0.11075 2.80000 0.00000
v 0.11776 1.50000 0.11776
v 0.00000 1.50000 0.16972
v 0.00000 2.80000 0.11103
v 0.11776 1.50000 0.11776
v 0.00000 2.80000 0.11103
v 0.07709 2.80000 0.07709
v 0.00000 1.50000 0.16972
v -0.11699 1.50000 0.11699
v -0.07655 2.80000 0.07655
v 0.00000 1.50000 0.16972
v -0.07655 2.80000 0.07655
v 0.00000 2.80000 0.11103
v -0.11699 1.50000 0.11699
v -0.17049 1.50000 0.00000
v -0.11157 2.80000 0.00000
v -0.11699 1.50000 0.11699
v -0.11157 2.80000 0.00000
v -0.07655 2.80000 0.07655
v -0.17049 1.50000 0.00000
v -0.11723 1.50000 -0.11723
v -0.07671 2.80000 -0.07671
v -0.17049 1.50000 0.00000
v -0.07671 2.80000 -0.07671
v -0.11157 2.80000 0.00000
v -0.11723 1.50000 -0.11723
v -0.00000 1.50000 -0.16914
v -0.00000 2.80000 -0.11065
v -0.11723 1.50000 -0.11723
v -0.00000 2.80000 -0.11065
v -0.07671 2.80000 -0.07671
v -0.00000 1.50000 -0.16914
v 0.11825 1.50000 -0.11825
v 0.07740 2.80000 -0.07740
v -0.00000 1.50000 -0.16914
v 0.07740 2.80000 -0.07740
v -0.00000 2.80000 -0.11065
v 0.11825 1.50000 -0.11825
v 0.16931 1.50000 0.00000
v 0.11075 2.80000 0.00000
v 0.11825 1.50000 -0.11825
v 0.11075 2.80000 0.00000
v 0.07740 2.80000 -0.07740
v 0.05894 1.35279 -0.01734
v 0.01445 1.37535 0.08628
v 1.27742 2.10013 0.44850
v 0.05894 1.35279 -0.01734
v 1.27742 2.10013 0.44850
v 1.30643 2.08542 0.38093
v 0.01445 1.37535 0.08628
v -0.04449 1.47256 0.10362
v 1.23898 2.16353 0.45981
v 0.01445 1.37535 0.08628
v 1.23898 2.16353 0.45981
v 1.27742 2.10013 0.44850
v -0.04449 1.47256 0.10362
v -0.05894 1.54721 0.01734
v 1.22955 2.21221 0.40355
v -0.04449 1.47256 0.10362
v 1.22955 2.21221 0.40355
v 1.23898 2.16353 0.45981
v -0.05894 1.54721 0.01734
v -0.01445 1.52465 -0.08628
v 1.25857 2.19750 0.33597
v -0.05894 1.54721 0.01734
v 1.25857 2.19750 0.33597
v 1.22955 2.21221 0.40355
v -0.01445 1.52465 -0.08628
v 0.04449 1.42744 -0.10362
v 1.29701 2.13410 0.32466
v -0.01445 1.52465 -0.08628
v 1.29701 2.13410 0.32466
v 1.25857 2.19750 0.33597
v 0.04449 1.42744 -0.10362
v 0.05894 1.35279 -0.01734
v 1.30643 2.08542 0.38093
v 0.04449 1.42744 -0.10362
v 1.30643 2.08542 0.38093
v 1.29701 2.13410 0.32466
v 1.32745 2.10444 0.38127
v 1.28822 2.09950 0.44500
v 1.80963 2.74718 0.79189
v 1.32745 2.10444 0.38127
v 1.80963 2.74718 0.79189
v 1.82729 2.74941 0.76321
v 1.28822 2.09950 0.44500
v 1.22876 2.14387 0.45597
v 1.78288 2.76715 0.79683
v 1.28822 2.09950 0.44500
v 1.78288 2.76715 0.79683
v 1.80963 2.74718 0.79189
v 1.22876 2.14387 0.45597
v 1.20854 2.19319 0.40321
v 1.77378 2.78935 0.77308
v 1.22876 2.14387 0.45597
v 1.77378 2.78935 0.77308
v 1.78288 2.76715 0.79683
v 1.20854 2.19319 0.40321
v 1.24777 2.19813 0.33948
v 1.79143 2.79157 0.74440
v 1.20854 2.19319 0.40321
v 1.79143 2.79157 0.74440
v 1.77378 2.78935 0.77308
v 1.24777 2.19813 0.33948
v 1.30722 2.15375 0.32851
v 1.81818 2.77160 0.73947
v 1.24777 2.19813 0.33948
v 1.81818 2.77160 0.73947
v 1.79143 2.79157 0.74440
v 1.30722 2.15375 0.32851
v 1.32745 2.10444 0.38127
v 1.82729 2.74941 0.76321
v 1.30722 2.15375 0.32851
v 1.82729 2.74941 0.76321
v 1.81818 2.77160 0.73947
v 1.83334 2.76183 0.76572
v 1.81483 2.74881 0.79076
v 1.92763 3.18527 1.08863
v 1.83334 2.76183 0.76572
v 1.92763 3.18527 1.08863
v 1.93596 3.19113 1.07737
v 1.81483 2.74881 0.79076
v 1.78203 2.75635 0.79319
v 1.91287 3.18866 1.08972
v 1.81483 2.74881 0.79076
v 1.91287 3.18866 1.08972
v 1.92763 3.18527 1.08863
v 1.78203 2.75635 0.79319
v 1.76772 2.77692 0.77057
v 1.90643 3.19791 1.07955
v 1.78203 2.75635 0.79319
v 1.90643 3.19791 1.07955
v 1.91287 3.18866 1.08972
v 1.76772 2.77692 0.77057
v 1.78623 2.78994 0.74553
v 1.91476 3.20378 1.06828
v 1.76772 2.77692 0.77057
v 1.91476 3.20378 1.06828
v 1.90643 3.19791 1.07955
v 1.78623 2.78994 0.74553
v 1.81903 2.78240 0.74311
v 1.92952 3.20038 1.06719
v 1.78623 2.78994 0.74553
v 1.92952 3.20038 1.06719
v 1.91476 3.20378 1.06828
v 1.81903 2.78240 0.74311
v 1.83334 2.76183 0.76572
v 1.93596 3.19113 1.07737
v 1.81903 2.78240 0.74311
v 1.93596 3.19113 1.07737
v 1.92952 3.20038 1.06719
v 1.82711 2.74858 0.76794
v 1.81364 2.75845 0.79726
v 2.13923 3.18960 0.79103
v 1.82711 2.74858 0.76794
v 2.13923 3.18960 0.79103
v 2.14529 3.18516 0.77784
v 1.81364 2.75845 0.79726
v 1.78706 2.77925 0.79748
v 2.12727 3.19896 0.79113
v 1.81364 2.75845 0.79726
v 2.12727 3.19896 0.79113
v 2.13923 3.18960 0.79103
v 1.78706 2.77925 0.79748
v 1.77395 2.79018 0.76836
v 2.12137 3.20388 0.77803
v 1.78706 2.77925 0.79748
v 2.12137 3.20388 0.77803
v 2.12727 3.19896 0.79113
v 1.77395 2.79018 0.76836
v 1.78742 2.78031 0.73903
v 2.12743 3.19944 0.76483
v 1.77395 2.79018 0.76836
v 2.12743 3.19944 0.76483
v 2.12137 3.20388 0.77803
v 1.78742 2.78031 0.73903
v 1.81400 2.75951 0.73882
v 2.13939 3.19008 0.76473
v 1.78742 2.78031 0.73903
v 2.13939 3.19008 0.76473
v 2.12743 3.19944 0.76483
v 1.81400 2.75951 0.73882
v 1.82711 2.74858 0.76794
v 2.14529 3.18516 0.77784
v 1.81400 2.75951 0.73882
v 2.14529 3.18516 0.77784
v 2.13939 3.19008 0.76473
v 1.31971 2.09450 0.39258
v 1.29415 2.12235 0.45735
v 1.93154 2.75747 0.41198
v 1.31971 2.09450 0.39258
v 1.93154 2.75747 0.41198
v 1.94304 2.74493 0.38283
v 1.29415 2.12235 0.45735
v 1.24243 2.17666 0.45701
v 1.90827 2.78191 0.41183
v 1.29415 2.12235 0.45735
v 1.90827 2.78191 0.41183
v 1.93154 2.75747 0.41198
v 1.24243 2.17666 0.45701
v 1.21628 2.20313 0.39190
v 1.89650 2.79382 0.38252
v 1.24243 2.17666 0.45701
v 1.89650 2.79382 0.38252
v 1.90827 2.78191 0.41183
v 1.21628 2.20313 0.39190
v 1.24184 2.17528 0.32712
v 1.90800 2.78129 0.35337
v 1.21628 2.20313 0.39190
v 1.90800 2.78129 0.35337
v 1.89650 2.79382 0.38252
v 1.24184 2.17528 0.32712
v 1.29356 2.12097 0.32746
v 1.93127 2.75684 0.35353
v 1.24184 2.17528 0.32712
v 1.93127 2.75684 0.35353
v 1.90800 2.78129 0.35337
v 1.29356 2.12097 0.32746
v 1.31971 2.09450 0.39258
v 1.94304 2.74493 0.38283
v 1.29356 2.12097 0.32746
v 1.94304 2.74493 0.38283
v 1.93127 2.75684 0.35353
v 1.94844 2.75186 0.37941
v 1.93128 2.75089 0.40846
v 2.20515 3.18620 0.57412
v 1.94844 2.75186 0.37941
v 2.20515 3.18620 0.57412
v 2.21287 3.18664 0.56105
v 1.93128 2.75089 0.40846
v 1.90261 2.76840 0.41172
v 2.19225 3.19408 0.57559
v 1.93128 2.75089 0.40846
v 2.19225 3.19408 0.57559
v 2.20515 3.18620 0.57412
v 1.90261 2.76840 0.41172
v 1.89110 2.78689 0.38594
v 2.18707 3.20240 0.56398
v 1.90261 2.76840 0.41172
v 2.18707 3.20240 0.56398
v 2.19225 3.19408 0.57559
v 1.89110 2.78689 0.38594
v 1.90826 2.78787 0.35689
v 2.19479 3.20284 0.55091
v 1.89110 2.78689 0.38594
v 2.19479 3.20284 0.55091
v 2.18707 3.20240 0.56398
v 1.90826 2.78787 0.35689
v 1.93693 2.77035 0.35363
v 2.20769 3.19496 0.54944
v 1.90826 2.78787 0.35689
v 2.20769 3.19496 0.54944
v 2.19479 3.20284 0.55091
v 1.93693 2.77035 0.35363
v 1.94844 2.75186 0.37941
v 2.21287 3.18664 0.56105
v 1.93693 2.77035 0.35363
v 2.21287 3.18664 0.56105
v 2.20769 3.19496 0.54944
v 1.94863 2.75220 0.38602
v 1.93710 2.77096 0.41160
v 2.20237 3.19523 0.20771
v 1.94863 2.75220 0.38602
v 2.20237 3.19523 0.20771
v 2.20756 3.18679 0.19621
v 1.93710 2.77096 0.41160
v 1.90824 2.78814 0.40825
v 2.18938 3.20296 0.20621
v 1.93710 2.77096 0.41160
v 2.18938 3.20296 0.20621
v 2.20237 3.19523 0.20771
v 1.90824 2.78814 0.40825
v 1.89091 2.78655 0.37933
v 2.18159 3.20225 0.19319
v 1.90824 2.78814 0.40825
v 2.18159 3.20225 0.19319
v 2.18938 3.20296 0.20621
v 1.89091 2.78655 0.37933
v 1.90244 2.76779 0.35376
v 2.18678 3.19381 0.18169
v 1.89091 2.78655 0.37933
v 2.18678 3.19381 0.18169
v 2.18159 3.20225 0.19319
v 1.90244 2.76779 0.35376
v 1.93130 2.75061 0.35710
v 2.19976 3.18608 0.18319
v 1.90244 2.76779 0.35376
v 2.19976 3.18608 0.18319
v 2.18678 3.19381 0.18169
v 1.93130 2.75061 0.35710
v 1.94863 2.75220 0.38602
v 2.20756 3.18679 0.19621
v 1.93130 2.75061 0.35710
v 2.20756 3.18679 0.19621
v 2.19976 3.18608 0.18319
v 0.11115 1.89627 0.01342
v 0.06720 1.80378 0.06576
v -0.26457 2.58198 1.11858
v 0.11115 1.89627 0.01342
v -0.26457 2.58198 1.11858
v -0.23590 2.64230 1.08445
v 0.06720 1.80378 0.06576
v -0.04395 1.77751 0.05233
v -0.33706 2.56485 1.10982
v 0.06720 1.80378 0.06576
v -0.33706 2.56485 1.10982
v -0.26457 2.58198 1.11858
v -0.04395 1.77751 0.05233
v -0.11115 1.84373 -0.01342
v -0.38088 2.60804 1.06694
v -0.04395 1.77751 0.05233
v -0.38088 2.60804 1.06694
v -0.33706 2.56485 1.10982
v -0.11115 1.84373 -0.01342
v -0.06720 1.93622 -0.06576
v -0.35222 2.66836 1.03281
v -0.11115 1.84373 -0.01342
v -0.35222 2.66836 1.03281
v -0.38088 2.60804 1.06694
v -0.06720 1.93622 -0.06576
v 0.04395 1.96249 -0.05233
v -0.27973 2.68549 1.04156
v -0.06720 1.93622 -0.06576
v -0.27973 2.68549 1.04156
v -0.35222 2.66836 1.03281
v 0.04395 1.96249 -0.05233
v 0.11115 1.89627 0.01342
v -0.23590 2.64230 1.08445
v 0.04395 1.96249 -0.05233
v -0.23590 2.64230 1.08445
v -0.27973 2.68549 1.04156
v -0.23974 2.65399 1.08470
v -0.26626 2.60414 1.13407
v -0.60067 3.21898 1.54388
v -0.23974 2.65399 1.08470
v -0.60067 3.21898 1.54388
v -0.58874 3.24141 1.52167
v -0.26626 2.60414 1.13407
v -0.33492 2.57532 1.12506
v -0.63157 3.20601 1.53983
v -0.26626 2.60414 1.13407
v -0.63157 3.20601 1.53983
v -0.60067 3.21898 1.54388
v -0.33492 2.57532 1.12506
v -0.37705 2.59635 1.06668
v -0.65053 3.21547 1.51356
v -0.33492 2.57532 1.12506
v -0.65053 3.21547 1.51356
v -0.63157 3.20601 1.53983
v -0.37705 2.59635 1.06668
v -0.35052 2.64620 1.01731
v -0.63859 3.23790 1.49134
v -0.37705 2.59635 1.06668
v -0.63859 3.23790 1.49134
v -0.65053 3.21547 1.51356
v -0.35052 2.64620 1.01731
v -0.28187 2.67502 1.02633
v -0.60770 3.25087 1.49540
v -0.35052 2.64620 1.01731
v -0.60770 3.25087 1.49540
v -0.63859 3.23790 1.49134
v -0.28187 2.67502 1.02633
v -0.23974 2.65399 1.08470
v -0.58874 3.24141 1.52167
v -0.28187 2.67502 1.02633
v -0.58874 3.24141 1.52167
v -0.60770 3.25087 1.49540
v -0.59140 3.24683 1.51952
v -0.60386 3.23212 1.54722
v -0.87731 3.62717 1.62270
v -0.59140 3.24683 1.51952
v -0.87731 3.62717 1.62270
v -0.87170 3.63379 1.61024
v -0.60386 3.23212 1.54722
v -0.63210 3.21373 1.54531
v -0.89002 3.61890 1.62184
v -0.60386 3.23212 1.54722
v -0.89002 3.61890 1.62184
v -0.87731 3.62717 1.62270
v -0.63210 3.21373 1.54531
v -0.64787 3.21005 1.51570
v -0.89711 3.61724 1.60852
v -0.63210 3.21373 1.54531
v -0.89711 3.61724 1.60852
v -0.89002 3.61890 1.62184
v -0.64787 3.21005 1.51570
v -0.63541 3.22477 1.48800
v -0.89151 3.62386 1.59605
v -0.64787 3.21005 1.51570
v -0.89151 3.62386 1.59605
v -0.89711 3.61724 1.60852
v -0.63541 3.22477 1.48800
v -0.60717 3.24315 1.48991
v -0.87880 3.63214 1.59691
v -0.63541 3.22477 1.48800
v -0.87880 3.63214 1.59691
v -0.89151 3.62386 1.59605
v -0.60717 3.24315 1.48991
v -0.59140 3.24683 1.51952
v -0.87170 3.63379 1.61024
v -0.60717 3.24315 1.48991
v -0.87170 3.63379 1.61024
v -0.87880 3.63214 1.59691
v -0.58588 3.22825 1.51755
v -0.60281 3.21149 1.54146
v -0.60927 3.61789 1.80856
v -0.58588 3.22825 1.51755
v -0.60927 3.61789 1.80856
v -0.60165 3.62543 1.79780
v -0.60281 3.21149 1.54146
v -0.63656 3.21169 1.54152
v -0.62446 3.61798 1.80858
v -0.60281 3.21149 1.54146
v -0.62446 3.61798 1.80858
v -0.60927 3.61789 1.80856
v -0.63656 3.21169 1.54152
v -0.65338 3.22864 1.51767
v -0.63203 3.62561 1.79785
v -0.63656 3.21169 1.54152
v -0.63203 3.62561 1.79785
v -0.62446 3.61798 1.80858
v -0.65338 3.22864 1.51767
v -0.63645 3.24539 1.49376
v -0.62441 3.63314 1.78709
v -0.65338 3.22864 1.51767
v -0.62441 3.63314 1.78709
v -0.63203 3.62561 1.79785
v -0.63645 3.24539 1.49376
v -0.60271 3.24520 1.49370
v -0.60922 3.63306 1.78706
v -0.63645 3.24539 1.49376
v -0.60922 3.63306 1.78706
v -0.62441 3.63314 1.78709
v -0.60271 3.24520 1.49370
v -0.58588 3.22825 1.51755
v -0.60165 3.62543 1.79780
v -0.60271 3.24520 1.49370
v -0.60165 3.62543 1.79780
v -0.60922 3.63306 1.78706
v -0.23345 2.62241 1.07464
v -0.27183 2.58051 1.12359
v -0.26212 3.20835 1.63694
v -0.23345 2.62241 1.07464
v -0.26212 3.20835 1.63694
v -0.24485 3.22720 1.61492
v -0.27183 2.58051 1.12359
v -0.34678 2.58327 1.12464
v -0.29585 3.20959 1.63742
v -0.27183 2.58051 1.12359
v -0.29585 3.20959 1.63742
v -0.26212 3.20835 1.63694
v -0.34678 2.58327 1.12464
v -0.38333 2.62793 1.07675
v -0.31230 3.22968 1.61586
v -0.34678 2.58327 1.12464
v -0.31230 3.22968 1.61586
v -0.29585 3.20959 1.63742
v -0.38333 2.62793 1.07675
v -0.34495 2.66983 1.02779
v -0.29503 3.24854 1.59384
v -0.38333 2.62793 1.07675
v -0.29503 3.24854 1.59384
v -0.31230 3.22968 1.61586
v -0.34495 2.66983 1.02779
v -0.27001 2.66707 1.02674
v -0.26130 3.24730 1.59336
v -0.34495 2.66983 1.02779
v -0.26130 3.24730 1.59336
v -0.29503 3.24854 1.59384
v -0.27001 2.66707 1.02674
v -0.23345 2.62241 1.07464
v -0.24485 3.22720 1.61492
v -0.27001 2.66707 1.02674
v -0.24485 3.22720 1.61492
v -0.26130 3.24730 1.59336
v -0.24661 3.23892 1.61819
v -0.26017 3.21948 1.64222
v -0.42113 3.62148 1.86363
v -0.24661 3.23892 1.61819
v -0.42113 3.62148 1.86363
v -0.41503 3.63023 1.85282
v -0.26017 3.21948 1.64222
v -0.29213 3.20900 1.63942
v -0.43551 3.61677 1.86237
v -0.26017 3.21948 1.64222
v -0.43551 3.61677 1.86237
v -0.42113 3.62148 1.86363
v -0.29213 3.20900 1.63942
v -0.31054 3.21797 1.61259
v -0.44379 3.62080 1.85030
v -0.29213 3.20900 1.63942
v -0.44379 3.62080 1.85030
v -0.43551 3.61677 1.86237
v -0.31054 3.21797 1.61259
v -0.29698 3.23741 1.58856
v -0.43769 3.62955 1.83948
v -0.31054 3.21797 1.61259
v -0.43769 3.62955 1.83948
v -0.44379 3.62080 1.85030
v -0.29698 3.23741 1.58856
v -0.26502 3.24788 1.59136
v -0.42331 3.63427 1.84075
v -0.29698 3.23741 1.58856
v -0.42331 3.63427 1.84075
v -0.43769 3.62955 1.83948
v -0.26502 3.24788 1.59136
v -0.24661 3.23892 1.61819
v -0.41503 3.63023 1.85282
v -0.26502 3.24788 1.59136
v -0.41503 3.63023 1.85282
v -0.42331 3.63427 1.84075
v -0.24726 3.21622 1.61237
v -0.26553 3.20922 1.63987
v -0.09677 3.61687 1.84452
v -0.24726 3.21622 1.61237
v -0.09677 3.61687 1.84452
v -0.08855 3.62002 1.83215
v -0.26553 3.20922 1.63987
v -0.29685 3.22143 1.64289
v -0.11086 3.62236 1.84588
v -0.26553 3.20922 1.63987
v -0.11086 3.62236 1.84588
v -0.09677 3.61687 1.84452
v -0.29685 3.22143 1.64289
v -0.30989 3.24066 1.61841
v -0.11673 3.63102 1.83486
v -0.29685 3.22143 1.64289
v -0.11673 3.63102 1.83486
v -0.11086 3.62236 1.84588
v -0.30989 3.24066 1.61841
v -0.29162 3.24767 1.59091
v -0.10851 3.63417 1.82249
v -0.30989 3.24066 1.61841
v -0.10851 3.63417 1.82249
v -0.11673 3.63102 1.83486
v -0.29162 3.24767 1.59091
v -0.26030 3.23545 1.58789
v -0.09442 3.62867 1.82113
v -0.29162 3.24767 1.59091
v -0.09442 3.62867 1.82113
v -0.10851 3.63417 1.82249
v -0.26030 3.23545 1.58789
v -0.24726 3.21622 1.61237
v -0.08855 3.62002 1.83215
v -0.26030 3.23545 1.58789
v -0.08855 3.62002 1.83215
v -0.09442 3.62867 1.82113
v 0.04369 2.39577 -0.01139
v 0.01198 2.35752 0.09232
v -1.14182 2.78913 -0.12344
v 0.04369 2.39577 -0.01139
v -1.14182 2.78913 -0.12344
v -1.12114 2.81408 -0.19108
v 0.01198 2.35752 0.09232
v -0.03171 2.25175 0.10371
v -1.17031 2.72015 -0.11601
v 0.01198 2.35752 0.09232
v -1.17031 2.72015 -0.11601
v -1.14182 2.78913 -0.12344
v -0.03171 2.25175 0.10371
v -0.04369 2.18423 0.01139
v -1.17813 2.67612 -0.17622
v -0.03171 2.25175 0.10371
v -1.17813 2.67612 -0.17622
v -1.17031 2.72015 -0.11601
v -0.04369 2.18423 0.01139
v -0.01198 2.22248 -0.09232
v -1.15745 2.70107 -0.24386
v -0.04369 2.18423 0.01139
v -1.15745 2.70107 -0.24386
v -1.17813 2.67612 -0.17622
v -0.01198 2.22248 -0.09232
v 0.03171 2.32825 -0.10371
v -1.12895 2.77005 -0.25129
v -0.01198 2.22248 -0.09232
v -1.12895 2.77005 -0.25129
v -1.15745 2.70107 -0.24386
v 0.03171 2.32825 -0.10371
v 0.04369 2.39577 -0.01139
v -1.12114 2.81408 -0.19108
v 0.03171 2.32825 -0.10371
v -1.12114 2.81408 -0.19108
v -1.12895 2.77005 -0.25129
v -1.09715 2.79751 -0.19476
v -1.13301 2.79370 -0.12900
v -1.66627 3.23702 -0.41762
v -1.09715 2.79751 -0.19476
v -1.66627 3.23702 -0.41762
v -1.65013 3.23873 -0.44721
v -1.13301 2.79370 -0.12900
v -1.18549 2.74129 -0.11789
v -1.68989 3.21343 -0.41262
v -1.13301 2.79370 -0.12900
v -1.68989 3.21343 -0.41262
v -1.66627 3.23702 -0.41762
v -1.18549 2.74129 -0.11789
v -1.20212 2.69269 -0.17254
v -1.69737 3.19156 -0.43722
v -1.18549 2.74129 -0.11789
v -1.69737 3.19156 -0.43722
v -1.68989 3.21343 -0.41262
v -1.20212 2.69269 -0.17254
v -1.16626 2.69650 -0.23830
v -1.68123 3.19328 -0.46681
v -1.20212 2.69269 -0.17254
v -1.68123 3.19328 -0.46681
v -1.69737 3.19156 -0.43722
v -1.16626 2.69650 -0.23830
v -1.11377 2.74891 -0.24941
v -1.65761 3.21686 -0.47181
v -1.16626 2.69650 -0.23830
v -1.65761 3.21686 -0.47181
v -1.68123 3.19328 -0.46681
v -1.11377 2.74891 -0.24941
v -1.09715 2.79751 -0.19476
v -1.65013 3.23873 -0.44721
v -1.11377 2.74891 -0.24941
v -1.65013 3.23873 -0.44721
v -1.65761 3.21686 -0.47181
v -1.64236 3.22696 -0.44597
v -1.66131 3.23735 -0.42005
v -1.82559 3.56391 -0.68314
v -1.64236 3.22696 -0.44597
v -1.82559 3.56391 -0.68314
v -1.81706 3.55923 -0.69480
v -1.66131 3.23735 -0.42005
v -1.69270 3.22554 -0.41629
v -1.83972 3.55859 -0.68145
v -1.66131 3.23735 -0.42005
v -1.83972 3.55859 -0.68145
v -1.82559 3.56391 -0.68314
v -1.69270 3.22554 -0.41629
v -1.70514 3.20334 -0.43846
v -1.84532 3.54860 -0.69142
v -1.69270 3.22554 -0.41629
v -1.84532 3.54860 -0.69142
v -1.83972 3.55859 -0.68145
v -1.70514 3.20334 -0.43846
v -1.68619 3.19295 -0.46438
v -1.83679 3.54393 -0.70309
v -1.70514 3.20334 -0.43846
v -1.83679 3.54393 -0.70309
v -1.84532 3.54860 -0.69142
v -1.68619 3.19295 -0.46438
v -1.65480 3.20476 -0.46814
v -1.82266 3.54924 -0.70478
v -1.68619 3.19295 -0.46438
v -1.82266 3.54924 -0.70478
v -1.83679 3.54393 -0.70309
v -1.65480 3.20476 -0.46814
v -1.64236 3.22696 -0.44597
v -1.81706 3.55923 -0.69480
v -1.65480 3.20476 -0.46814
v -1.81706 3.55923 -0.69480
v -1.82266 3.54924 -0.70478
v -1.64827 3.23727 -0.44144
v -1.66034 3.22440 -0.41266
v -1.96262 3.55808 -0.40118
v -1.64827 3.23727 -0.44144
v -1.96262 3.55808 -0.40118
v -1.95719 3.56387 -0.41413
v -1.66034 3.22440 -0.41266
v -1.68582 3.20229 -0.41344
v -1.97408 3.54813 -0.40153
v -1.66034 3.22440 -0.41266
v -1.97408 3.54813 -0.40153
v -1.96262 3.55808 -0.40118
v -1.68582 3.20229 -0.41344
v -1.69923 3.19303 -0.44299
v -1.98012 3.54396 -0.41483
v -1.68582 3.20229 -0.41344
v -1.98012 3.54396 -0.41483
v -1.97408 3.54813 -0.40153
v -1.69923 3.19303 -0.44299
v -1.68716 3.20589 -0.47177
v -1.97469 3.54975 -0.42778
v -1.69923 3.19303 -0.44299
v -1.97469 3.54975 -0.42778
v -1.98012 3.54396 -0.41483
v -1.68716 3.20589 -0.47177
v -1.66168 3.22801 -0.47099
v -1.96322 3.55970 -0.42743
v -1.68716 3.20589 -0.47177
v -1.96322 3.55970 -0.42743
v -1.97469 3.54975 -0.42778
v -1.66168 3.22801 -0.47099
v -1.64827 3.23727 -0.44144
v -1.95719 3.56387 -0.41413
v -1.66168 3.22801 -0.47099
v -1.95719 3.56387 -0.41413
v -1.96322 3.55970 -0.42743
v -1.10207 2.80296 -0.17974
v -1.12247 2.76689 -0.11723
v -1.71600 3.22495 -0.07134
v -1.10207 2.80296 -0.17974
v -1.71600 3.22495 -0.07134
v -1.70682 3.24118 -0.09948
v -1.12247 2.76689 -0.11723
v -1.17003 2.70903 -0.12113
v -1.73740 3.19892 -0.07310
v -1.12247 2.76689 -0.11723
v -1.73740 3.19892 -0.07310
v -1.71600 3.22495 -0.07134
v -1.17003 2.70903 -0.12113
v -1.19719 2.68724 -0.18756
v -1.74962 3.18911 -0.10299
v -1.17003 2.70903 -0.12113
v -1.74962 3.18911 -0.10299
v -1.73740 3.19892 -0.07310
v -1.19719 2.68724 -0.18756
v -1.17680 2.72331 -0.25007
v -1.74045 3.20534 -0.13113
v -1.19719 2.68724 -0.18756
v -1.74045 3.20534 -0.13113
v -1.74962 3.18911 -0.10299
v -1.17680 2.72331 -0.25007
v -1.12924 2.78117 -0.24616
v -1.71904 3.23138 -0.12937
v -1.17680 2.72331 -0.25007
v -1.71904 3.23138 -0.12937
v -1.74045 3.20534 -0.13113
v -1.12924 2.78117 -0.24616
v -1.10207 2.80296 -0.17974
v -1.70682 3.24118 -0.09948
v -1.12924 2.78117 -0.24616
v -1.70682 3.24118 -0.09948
v -1.71904 3.23138 -0.12937
v -1.70148 3.23552 -0.10429
v -1.71750 3.23301 -0.07468
v -1.99498 3.56195 -0.20752
v -1.70148 3.23552 -0.10429
v -1.99498 3.56195 -0.20752
v -1.98777 3.56308 -0.22084
v -1.71750 3.23301 -0.07468
v -1.74423 3.21264 -0.07163
v -2.00701 3.55279 -0.20615
v -1.71750 3.23301 -0.07468
v -2.00701 3.55279 -0.20615
v -1.99498 3.56195 -0.20752
v -1.74423 3.21264 -0.07163
v -1.75496 3.19478 -0.09818
v -2.01184 3.54475 -0.21809
v -1.74423 3.21264 -0.07163
v -2.01184 3.54475 -0.21809
v -2.00701 3.55279 -0.20615
v -1.75496 3.19478 -0.09818
v -1.73895 3.19728 -0.12779
v -2.00463 3.54588 -0.23142
v -1.75496 3.19478 -0.09818
v -2.00463 3.54588 -0.23142
v -2.01184 3.54475 -0.21809
v -1.73895 3.19728 -0.12779
v -1.71221 3.21765 -0.13084
v -1.99260 3.55504 -0.23279
v -1.73895 3.19728 -0.12779
v -1.99260 3.55504 -0.23279
v -2.00463 3.54588 -0.23142
v -1.71221 3.21765 -0.13084
v -1.70148 3.23552 -0.10429
v -1.98777 3.56308 -0.22084
v -1.71221 3.21765 -0.13084
v -1.98777 3.56308 -0.22084
v -1.99260 3.55504 -0.23279
v -1.69940 3.23223 -0.09713
v -1.71026 3.21139 -0.07291
v -1.94791 3.55222 0.10087
v -1.69940 3.23223 -0.09713
v -1.94791 3.55222 0.10087
v -1.94302 3.56160 0.08997
v -1.71026 3.21139 -0.07291
v -1.73908 3.19431 -0.07701
v -1.96088 3.54454 0.09903
v -1.71026 3.21139 -0.07291
v -1.96088 3.54454 0.09903
v -1.94791 3.55222 0.10087
v -1.73908 3.19431 -0.07701
v -1.75704 3.19806 -0.10534
v -1.96896 3.54623 0.08628
v -1.73908 3.19431 -0.07701
v -1.96896 3.54623 0.08628
v -1.96088 3.54454 0.09903
v -1.75704 3.19806 -0.10534
v -1.74618 3.21891 -0.12956
v -1.96407 3.55561 0.07538
v -1.75704 3.19806 -0.10534
v -1.96407 3.55561 0.07538
v -1.96896 3.54623 0.08628
v -1.74618 3.21891 -0.12956
v -1.71736 3.23599 -0.12546
v -1.95110 3.56329 0.07723
v -1.74618 3.21891 -0.12956
v -1.95110 3.56329 0.07723
v -1.96407 3.55561 0.07538
v -1.71736 3.23599 -0.12546
v -1.69940 3.23223 -0.09713
v -1.94302 3.56160 0.08997
v -1.71736 3.23599 -0.12546
v -1.94302 3.56160 0.08997
v -1.95110 3.56329 0.07723
v 0.11492 1.44629 0.00210
v 0.05928 1.53353 0.05228
v 0.08383 2.22370 -1.16619
v 0.11492 1.44629 0.00210
v 0.08383 2.22370 -1.16619
v 0.12011 2.16680 -1.19891
v 0.05928 1.53353 0.05228
v -0.05564 1.53724 0.05018
v 0.00888 2.22612 -1.16756
v 0.05928 1.53353 0.05228
v 0.00888 2.22612 -1.16756
v 0.08383 2.22370 -1.16619
v -0.05564 1.53724 0.05018
v -0.11492 1.45371 -0.00210
v -0.02978 2.17164 -1.20165
v -0.05564 1.53724 0.05018
v -0.02978 2.17164 -1.20165
v 0.00888 2.22612 -1.16756
v -0.11492 1.45371 -0.00210
v -0.05928 1.36647 -0.05228
v 0.00650 2.11475 -1.23438
v -0.11492 1.45371 -0.00210
v 0.00650 2.11475 -1.23438
v -0.02978 2.17164 -1.20165
v -0.05928 1.36647 -0.05228
v 0.05564 1.36276 -0.05018
v 0.08145 2.11233 -1.23301
v -0.05928 1.36647 -0.05228
v 0.08145 2.11233 -1.23301
v 0.00650 2.11475 -1.23438
v 0.05564 1.36276 -0.05018
v 0.11492 1.44629 0.00210
v 0.12011 2.16680 -1.19891
v 0.05564 1.36276 -0.05018
v 0.12011 2.16680 -1.19891
v 0.08145 2.11233 -1.23301
v 0.11752 2.15076 -1.19329
v 0.08740 2.20228 -1.14786
v 0.27092 2.78727 -1.72353
v 0.11752 2.15076 -1.19329
v 0.27092 2.78727 -1.72353
v 0.28448 2.76409 -1.74397
v 0.08740 2.20228 -1.14786
v 0.01505 2.22074 -1.15485
v 0.23836 2.79558 -1.72668
v 0.08740 2.20228 -1.14786
v 0.23836 2.79558 -1.72668
v 0.27092 2.78727 -1.72353
v 0.01505 2.22074 -1.15485
v -0.02719 2.18768 -1.20728
v 0.21936 2.78071 -1.75027
v 0.01505 2.22074 -1.15485
v 0.21936 2.78071 -1.75027
v 0.23836 2.79558 -1.72668
v -0.02719 2.18768 -1.20728
v 0.00293 2.13617 -1.25271
v 0.23291 2.75752 -1.77071
v -0.02719 2.18768 -1.20728
v 0.23291 2.75752 -1.77071
v 0.21936 2.78071 -1.75027
v 0.00293 2.13617 -1.25271
v 0.07529 2.11771 -1.24572
v 0.26547 2.74922 -1.76757
v 0.00293 2.13617 -1.25271
v 0.26547 2.74922 -1.76757
v 0.23291 2.75752 -1.77071
v 0.07529 2.11771 -1.24572
v 0.11752 2.15076 -1.19329
v 0.28448 2.76409 -1.74397
v 0.07529 2.11771 -1.24572
v 0.28448 2.76409 -1.74397
v 0.26547 2.74922 -1.76757
v 0.28117 2.75585 -1.74401
v 0.26924 2.77405 -1.71820
v 0.50682 3.17772 -1.90519
v 0.28117 2.75585 -1.74401
v 0.50682 3.17772 -1.90519
v 0.51219 3.16953 -1.91680
v 0.26924 2.77405 -1.71820
v 0.23999 2.79059 -1.72132
v 0.49366 3.18516 -1.90659
v 0.26924 2.77405 -1.71820
v 0.49366 3.18516 -1.90659
v 0.50682 3.17772 -1.90519
v 0.23999 2.79059 -1.72132
v 0.22267 2.78895 -1.75024
v 0.48587 3.18442 -1.91960
v 0.23999 2.79059 -1.72132
v 0.48587 3.18442 -1.91960
v 0.49366 3.18516 -1.90659
v 0.22267 2.78895 -1.75024
v 0.23459 2.77075 -1.77604
v 0.49123 3.17624 -1.93121
v 0.22267 2.78895 -1.75024
v 0.49123 3.17624 -1.93121
v 0.48587 3.18442 -1.91960
v 0.23459 2.77075 -1.77604
v 0.26384 2.75420 -1.77292
v 0.50440 3.16879 -1.92981
v 0.23459 2.77075 -1.77604
v 0.50440 3.16879 -1.92981
v 0.49123 3.17624 -1.93121
v 0.26384 2.75420 -1.77292
v 0.28117 2.75585 -1.74401
v 0.51219 3.16953 -1.91680
v 0.26384 2.75420 -1.77292
v 0.51219 3.16953 -1.91680
v 0.50440 3.16879 -1.92981
v 0.28528 2.77723 -1.74867
v 0.26726 2.79173 -1.72410
v 0.18671 3.18568 -2.02854
v 0.28528 2.77723 -1.74867
v 0.18671 3.18568 -2.02854
v 0.19482 3.17915 -2.03959
v 0.26726 2.79173 -1.72410
v 0.23389 2.78690 -1.72255
v 0.17169 3.18350 -2.02784
v 0.26726 2.79173 -1.72410
v 0.17169 3.18350 -2.02784
v 0.18671 3.18568 -2.02854
v 0.23389 2.78690 -1.72255
v 0.21855 2.76757 -1.74557
v 0.16479 3.17480 -2.03820
v 0.23389 2.78690 -1.72255
v 0.16479 3.17480 -2.03820
v 0.17169 3.18350 -2.02784
v 0.21855 2.76757 -1.74557
v 0.23658 2.75306 -1.77014
v 0.17290 3.16828 -2.04925
v 0.21855 2.76757 -1.74557
v 0.17290 3.16828 -2.04925
v 0.16479 3.17480 -2.03820
v 0.23658 2.75306 -1.77014
v 0.26994 2.75789 -1.77169
v 0.18792 3.17045 -2.04995
v 0.23658 2.75306 -1.77014
v 0.18792 3.17045 -2.04995
v 0.17290 3.16828 -2.04925
v 0.26994 2.75789 -1.77169
v 0.28528 2.77723 -1.74867
v 0.19482 3.17915 -2.03959
v 0.26994 2.75789 -1.77169
v 0.19482 3.17915 -2.03959
v 0.18792 3.17045 -2.04995
v 0.11848 2.18396 -1.20601
v 0.07686 2.21996 -1.15505
v -0.10564 2.79523 -1.74076
v 0.11848 2.18396 -1.20601
v -0.10564 2.79523 -1.74076
v -0.08692 2.77903 -1.76369
v 0.07686 2.21996 -1.15505
v 0.00355 2.20522 -1.14932
v -0.13863 2.78860 -1.73818
v 0.07686 2.21996 -1.15505
v -0.13863 2.78860 -1.73818
v -0.10564 2.79523 -1.74076
v 0.00355 2.20522 -1.14932
v -0.02815 2.15448 -1.19456
v -0.15290 2.76577 -1.75854
v 0.00355 2.20522 -1.14932
v -0.15290 2.76577 -1.75854
v -0.13863 2.78860 -1.73818
v -0.02815 2.15448 -1.19456
v 0.01347 2.11849 -1.24552
v -0.13417 2.74957 -1.78147
v -0.02815 2.15448 -1.19456
v -0.13417 2.74957 -1.78147
v -0.15290 2.76577 -1.75854
v 0.01347 2.11849 -1.24552
v 0.08678 2.13323 -1.25125
v -0.10118 2.75620 -1.78405
v 0.01347 2.11849 -1.24552
v -0.10118 2.75620 -1.78405
v -0.13417 2.74957 -1.78147
v 0.08678 2.13323 -1.25125
v 0.11848 2.18396 -1.20601
v -0.08692 2.77903 -1.76369
v 0.08678 2.13323 -1.25125
v -0.08692 2.77903 -1.76369
v -0.10118 2.75620 -1.78405
v -0.08681 2.76611 -1.75914
v -0.10165 2.78582 -1.73610
v -0.01786 3.18301 -2.03539
v -0.08681 2.76611 -1.75914
v -0.01786 3.18301 -2.03539
v -0.01118 3.17415 -2.04575
v -0.10165 2.78582 -1.73610
v -0.13475 2.79210 -1.73808
v -0.03275 3.18584 -2.03628
v -0.10165 2.78582 -1.73610
v -0.03275 3.18584 -2.03628
v -0.01786 3.18301 -2.03539
v -0.13475 2.79210 -1.73808
v -0.15301 2.77868 -1.76309
v -0.04097 3.17980 -2.04753
v -0.13475 2.79210 -1.73808
v -0.04097 3.17980 -2.04753
v -0.03275 3.18584 -2.03628
v -0.15301 2.77868 -1.76309
v -0.13817 2.75898 -1.78612
v -0.03429 3.17094 -2.05790
v -0.15301 2.77868 -1.76309
v -0.03429 3.17094 -2.05790
v -0.04097 3.17980 -2.04753
v -0.13817 2.75898 -1.78612
v -0.10507 2.75270 -1.78415
v -0.01939 3.16811 -2.05701
v -0.13817 2.75898 -1.78612
v -0.01939 3.16811 -2.05701
v -0.03429 3.17094 -2.05790
v -0.10507 2.75270 -1.78415
v -0.08681 2.76611 -1.75914
v -0.01118 3.17415 -2.04575
v -0.10507 2.75270 -1.78415
v -0.01118 3.17415 -2.04575
v -0.01939 3.16811 -2.05701
v -0.09018 2.78804 -1.76437
v -0.10786 2.79119 -1.73580
v -0.34804 3.18543 -1.93889
v -0.09018 2.78804 -1.76437
v -0.34804 3.18543 -1.93889
v -0.34008 3.18401 -1.95174
v -0.10786 2.79119 -1.73580
v -0.13759 2.77555 -1.73254
v -0.36142 3.17839 -1.93742
v -0.10786 2.79119 -1.73580
v -0.36142 3.17839 -1.93742
v -0.34804 3.18543 -1.93889
v -0.13759 2.77555 -1.73254
v -0.14964 2.75676 -1.75786
v -0.36684 3.16994 -1.94881
v -0.13759 2.77555 -1.73254
v -0.36684 3.16994 -1.94881
v -0.36142 3.17839 -1.93742
v -0.14964 2.75676 -1.75786
v -0.13195 2.75361 -1.78643
v -0.35888 3.16852 -1.96167
v -0.14964 2.75676 -1.75786
v -0.35888 3.16852 -1.96167
v -0.36684 3.16994 -1.94881
v -0.13195 2.75361 -1.78643
v -0.10222 2.76925 -1.78968
v -0.34550 3.17556 -1.96314
v -0.13195 2.75361 -1.78643
v -0.34550 3.17556 -1.96314
v -0.35888 3.16852 -1.96167
v -0.10222 2.76925 -1.78968
v -0.09018 2.78804 -1.76437
v -0.34008 3.18401 -1.95174
v -0.10222 2.76925 -1.78968
v -0.34008 3.18401 -1.95174
v -0.34550 3.17556 -1.96314
v 0.07976 1.78838 0.01421
v 0.05218 1.85768 0.10174
v 0.85021 2.60231 -0.26266
v 0.07976 1.78838 0.01421
v 0.85021 2.60231 -0.26266
v 0.86819 2.55712 -0.31974
v 0.05218 1.85768 0.10174
v -0.02758 1.93930 0.08753
v 0.79819 2.65554 -0.27192
v 0.05218 1.85768 0.10174
v 0.79819 2.65554 -0.27192
v 0.85021 2.60231 -0.26266
v -0.02758 1.93930 0.08753
v -0.07976 1.95162 -0.01421
v 0.76416 2.66357 -0.33827
v -0.02758 1.93930 0.08753
v 0.76416 2.66357 -0.33827
v 0.79819 2.65554 -0.27192
v -0.07976 1.95162 -0.01421
v -0.05218 1.88232 -0.10174
v 0.78214 2.61838 -0.39536
v -0.07976 1.95162 -0.01421
v 0.78214 2.61838 -0.39536
v 0.76416 2.66357 -0.33827
v -0.05218 1.88232 -0.10174
v 0.02758 1.80070 -0.08753
v 0.83416 2.56515 -0.38609
v -0.05218 1.88232 -0.10174
v 0.83416 2.56515 -0.38609
v 0.78214 2.61838 -0.39536
v 0.02758 1.80070 -0.08753
v 0.07976 1.78838 0.01421
v 0.86819 2.55712 -0.31974
v 0.02758 1.80070 -0.08753
v 0.86819 2.55712 -0.31974
v 0.83416 2.56515 -0.38609
v 0.87565 2.56465 -0.32865
v 0.84622 2.58842 -0.26388
v 1.25007 3.14756 -0.30946
v 0.87565 2.56465 -0.32865
v 1.25007 3.14756 -0.30946
v 1.26331 3.13686 -0.33861
v 0.84622 2.58842 -0.26388
v 0.78675 2.63411 -0.26424
v 1.22330 3.16812 -0.30963
v 0.84622 2.58842 -0.26388
v 1.22330 3.16812 -0.30963
v 1.25007 3.14756 -0.30946
v 0.78675 2.63411 -0.26424
v 0.75670 2.65604 -0.32937
v 1.20978 3.17799 -0.33893
v 0.78675 2.63411 -0.26424
v 1.20978 3.17799 -0.33893
v 1.22330 3.16812 -0.30963
v 0.75670 2.65604 -0.32937
v 0.78613 2.63227 -0.39413
v 1.22302 3.16729 -0.36808
v 0.75670 2.65604 -0.32937
v 1.22302 3.16729 -0.36808
v 1.20978 3.17799 -0.33893
v 0.78613 2.63227 -0.39413
v 0.84560 2.58658 -0.39377
v 1.24978 3.14673 -0.36791
v 0.78613 2.63227 -0.39413
v 1.24978 3.14673 -0.36791
v 1.22302 3.16729 -0.36808
v 0.84560 2.58658 -0.39377
v 0.87565 2.56465 -0.32865
v 1.26331 3.13686 -0.33861
v 0.84560 2.58658 -0.39377
v 1.26331 3.13686 -0.33861
v 1.24978 3.14673 -0.36791
v 1.26689 3.14288 -0.34132
v 1.24951 3.14070 -0.31248
v 1.42077 3.49866 -0.19302
v 1.26689 3.14288 -0.34132
v 1.42077 3.49866 -0.19302
v 1.42859 3.49965 -0.20600
v 1.24951 3.14070 -0.31248
v 1.21916 3.15524 -0.30993
v 1.40711 3.50521 -0.19187
v 1.24951 3.14070 -0.31248
v 1.40711 3.50521 -0.19187
v 1.42077 3.49866 -0.19302
v 1.21916 3.15524 -0.30993
v 1.20619 3.17197 -0.33622
v 1.40128 3.51273 -0.20370
v 1.21916 3.15524 -0.30993
v 1.40128 3.51273 -0.20370
v 1.40711 3.50521 -0.19187
v 1.20619 3.17197 -0.33622
v 1.22358 3.17415 -0.36506
v 1.40910 3.51372 -0.21668
v 1.20619 3.17197 -0.33622
v 1.40910 3.51372 -0.21668
v 1.40128 3.51273 -0.20370
v 1.22358 3.17415 -0.36506
v 1.25393 3.15961 -0.36762
v 1.42276 3.50717 -0.21783
v 1.22358 3.17415 -0.36506
v 1.42276 3.50717 -0.21783
v 1.40910 3.51372 -0.21668
v 1.25393 3.15961 -0.36762
v 1.26689 3.14288 -0.34132
v 1.42859 3.49965 -0.20600
v 1.25393 3.15961 -0.36762
v 1.42859 3.49965 -0.20600
v 1.42276 3.50717 -0.21783
v 1.26713 3.14340 -0.33616
v 1.25410 3.16044 -0.31010
v 1.41643 3.50755 -0.46793
v 1.26713 3.14340 -0.33616
v 1.41643 3.50755 -0.46793
v 1.42229 3.49988 -0.47965
v 1.25410 3.16044 -0.31010
v 1.22351 3.17446 -0.31272
v 1.40266 3.51386 -0.46910
v 1.25410 3.16044 -0.31010
v 1.40266 3.51386 -0.46910
v 1.41643 3.50755 -0.46793
v 1.22351 3.17446 -0.31272
v 1.20595 3.17144 -0.34138
v 1.39476 3.51250 -0.48200
v 1.22351 3.17446 -0.31272
v 1.39476 3.51250 -0.48200
v 1.40266 3.51386 -0.46910
v 1.20595 3.17144 -0.34138
v 1.21899 3.15441 -0.36744
v 1.40063 3.50483 -0.49373
v 1.20595 3.17144 -0.34138
v 1.40063 3.50483 -0.49373
v 1.39476 3.51250 -0.48200
v 1.21899 3.15441 -0.36744
v 1.24958 3.14039 -0.36483
v 1.41439 3.49852 -0.49255
v 1.21899 3.15441 -0.36744
v 1.41439 3.49852 -0.49255
v 1.40063 3.50483 -0.49373
v 1.24958 3.14039 -0.36483
v 1.26713 3.14340 -0.33616
v 1.42229 3.49988 -0.47965
v 1.24958 3.14039 -0.36483
v 1.42229 3.49988 -0.47965
v 1.41439 3.49852 -0.49255
v 0.88275 2.57669 -0.32127
v 0.85617 2.62030 -0.26635
v 1.14379 3.16190 -0.58531
v 0.88275 2.57669 -0.32127
v 1.14379 3.16190 -0.58531
v 1.15575 3.14228 -0.61003
v 0.85617 2.62030 -0.26635
v 0.78959 2.65395 -0.27409
v 1.11383 3.17705 -0.58880
v 0.85617 2.62030 -0.26635
v 1.11383 3.17705 -0.58880
v 1.14379 3.16190 -0.58531
v 0.78959 2.65395 -0.27409
v 0.74960 2.64400 -0.33675
v 1.09583 3.17257 -0.61700
v 0.78959 2.65395 -0.27409
v 1.09583 3.17257 -0.61700
v 1.11383 3.17705 -0.58880
v 0.74960 2.64400 -0.33675
v 0.77618 2.60039 -0.39167
v 1.10780 3.15295 -0.64171
v 0.74960 2.64400 -0.33675
v 1.10780 3.15295 -0.64171
v 1.09583 3.17257 -0.61700
v 0.77618 2.60039 -0.39167
v 0.84276 2.56674 -0.38393
v 1.13776 3.13780 -0.63823
v 0.77618 2.60039 -0.39167
v 1.13776 3.13780 -0.63823
v 1.10780 3.15295 -0.64171
v 0.84276 2.56674 -0.38393
v 0.88275 2.57669 -0.32127
v 1.15575 3.14228 -0.61003
v 0.84276 2.56674 -0.38393
v 1.15575 3.14228 -0.61003
v 1.13776 3.13780 -0.63823
v 1.15425 3.13929 -0.61311
v 1.14037 3.14955 -0.58411
v 1.35477 3.50265 -0.61721
v 1.15425 3.13929 -0.61311
v 1.35477 3.50265 -0.61721
v 1.36102 3.49803 -0.63026
v 1.14037 3.14955 -0.58411
v 1.11191 3.16769 -0.58451
v 1.34197 3.51081 -0.61739
v 1.14037 3.14955 -0.58411
v 1.34197 3.51081 -0.61739
v 1.35477 3.50265 -0.61721
v 1.11191 3.16769 -0.58451
v 1.09733 3.17556 -0.61391
v 1.33541 3.51435 -0.63063
v 1.11191 3.16769 -0.58451
v 1.33541 3.51435 -0.63063
v 1.34197 3.51081 -0.61739
v 1.09733 3.17556 -0.61391
v 1.11121 3.16530 -0.64292
v 1.34165 3.50973 -0.64368
v 1.09733 3.17556 -0.61391
v 1.34165 3.50973 -0.64368
v 1.33541 3.51435 -0.63063
v 1.11121 3.16530 -0.64292
v 1.13967 3.14716 -0.64251
v 1.35446 3.50157 -0.64349
v 1.11121 3.16530 -0.64292
v 1.35446 3.50157 -0.64349
v 1.34165 3.50973 -0.64368
v 1.13967 3.14716 -0.64251
v 1.15425 3.13929 -0.61311
v 1.36102 3.49803 -0.63026
v 1.13967 3.14716 -0.64251
v 1.36102 3.49803 -0.63026
v 1.35446 3.50157 -0.64349
v 1.15941 3.15452 -0.61267
v 1.14333 3.17152 -0.58835
v 1.16932 3.51253 -0.82239
v 1.15941 3.15452 -0.61267
v 1.16932 3.51253 -0.82239
v 1.17656 3.50488 -0.83333
v 1.14333 3.17152 -0.58835
v 1.10971 3.17442 -0.58919
v 1.15420 3.51384 -0.82277
v 1.14333 3.17152 -0.58835
v 1.15420 3.51384 -0.82277
v 1.16932 3.51253 -0.82239
v 1.10971 3.17442 -0.58919
v 1.09218 3.16033 -0.61435
v 1.14631 3.50750 -0.83409
v 1.10971 3.17442 -0.58919
v 1.14631 3.50750 -0.83409
v 1.15420 3.51384 -0.82277
v 1.09218 3.16033 -0.61435
v 1.10826 3.14333 -0.63867
v 1.15354 3.49985 -0.84503
v 1.09218 3.16033 -0.61435
v 1.15354 3.49985 -0.84503
v 1.14631 3.50750 -0.83409
v 1.10826 3.14333 -0.63867
v 1.14187 3.14043 -0.63783
v 1.16867 3.49854 -0.84466
v 1.10826 3.14333 -0.63867
v 1.16867 3.49854 -0.84466
v 1.15354 3.49985 -0.84503
v 1.14187 3.14043 -0.63783
v 1.15941 3.15452 -0.61267
v 1.17656 3.50488 -0.83333
v 1.14187 3.14043 -0.63783
v 1.17656 3.50488 -0.83333
v 1.16867 3.49854 -0.84466
v 0.11812 2.72889 -0.00125
v 0.05798 2.72726 0.10257
v 0.22648 3.86452 0.17762
v 0.11812 2.72889 -0.00125
v 0.22648 3.86452 0.17762
v 0.25154 3.86520 0.13436
v 0.05798 2.72726 0.10257
v -0.06015 2.74837 0.10383
v 0.17726 3.87332 0.17814
v 0.05798 2.72726 0.10257
v 0.17726 3.87332 0.17814
v 0.22648 3.86452 0.17762
v -0.06015 2.74837 0.10383
v -0.11812 2.77111 0.00125
v 0.15310 3.88280 0.13540
v -0.06015 2.74837 0.10383
v 0.15310 3.88280 0.13540
v 0.17726 3.87332 0.17814
v -0.11812 2.77111 0.00125
v -0.05798 2.77274 -0.10257
v 0.17816 3.88348 0.09214
v -0.11812 2.77111 0.00125
v 0.17816 3.88348 0.09214
v 0.15310 3.88280 0.13540
v -0.05798 2.77274 -0.10257
v 0.06015 2.75163 -0.10383
v 0.22738 3.87468 0.09162
v -0.05798 2.77274 -0.10257
v 0.22738 3.87468 0.09162
v 0.17816 3.88348 0.09214
v 0.06015 2.75163 -0.10383
v 0.11812 2.72889 -0.00125
v 0.25154 3.86520 0.13436
v 0.06015 2.75163 -0.10383
v 0.25154 3.86520 0.13436
v 0.22738 3.87468 0.09162
v 0.25232 3.87344 0.13481
v 0.22726 3.86300 0.17680
v 0.22128 4.53755 0.32449
v 0.25232 3.87344 0.13481
v 0.22128 4.53755 0.32449
v 0.23256 4.54224 0.30559
v 0.22726 3.86300 0.17680
v 0.17726 3.86356 0.17687
v 0.19878 4.53780 0.32452
v 0.22726 3.86300 0.17680
v 0.19878 4.53780 0.32452
v 0.22128 4.53755 0.32449
v 0.17726 3.86356 0.17687
v 0.15232 3.87456 0.13495
v 0.18756 4.54275 0.30566
v 0.17726 3.86356 0.17687
v 0.18756 4.54275 0.30566
v 0.19878 4.53780 0.32452
v 0.15232 3.87456 0.13495
v 0.17738 3.88499 0.09296
v 0.19884 4.54744 0.28676
v 0.15232 3.87456 0.13495
v 0.19884 4.54744 0.28676
v 0.18756 4.54275 0.30566
v 0.17738 3.88499 0.09296
v 0.22738 3.88443 0.09289
v 0.22134 4.54719 0.28673
v 0.17738 3.88499 0.09296
v 0.22134 4.54719 0.28673
v 0.19884 4.54744 0.28676
v 0.22738 3.88443 0.09289
v 0.25232 3.87344 0.13481
v 0.23256 4.54224 0.30559
v 0.22738 3.88443 0.09289
v 0.23256 4.54224 0.30559
v 0.22134 4.54719 0.28673
v 0.23141 4.54957 0.30629
v 0.22131 4.54251 0.32511
v 0.08502 4.92835 0.38918
v 0.23141 4.54957 0.30629
v 0.08502 4.92835 0.38918
v 0.08957 4.93152 0.38071
v 0.22131 4.54251 0.32511
v 0.19996 4.53544 0.32445
v 0.07541 4.92517 0.38888
v 0.22131 4.54251 0.32511
v 0.07541 4.92517 0.38888
v 0.08502 4.92835 0.38918
v 0.19996 4.53544 0.32445
v 0.18871 4.53542 0.30496
v 0.07035 4.92516 0.38011
v 0.19996 4.53544 0.32445
v 0.07035 4.92516 0.38011
v 0.07541 4.92517 0.38888
v 0.18871 4.53542 0.30496
v 0.19881 4.54248 0.28614
v 0.07490 4.92833 0.37164
v 0.18871 4.53542 0.30496
v 0.07490 4.92833 0.37164
v 0.07035 4.92516 0.38011
v 0.19881 4.54248 0.28614
v 0.22016 4.54955 0.28680
v 0.08450 4.93152 0.37194
v 0.19881 4.54248 0.28614
v 0.08450 4.93152 0.37194
v 0.07490 4.92833 0.37164
v 0.22016 4.54955 0.28680
v 0.23141 4.54957 0.30629
v 0.08957 4.93152 0.38071
v 0.22016 4.54955 0.28680
v 0.08957 4.93152 0.38071
v 0.08450 4.93152 0.37194
v 0.23130 4.53509 0.30504
v 0.22017 4.53584 0.32459
v 0.35094 4.92534 0.37687
v 0.23130 4.53509 0.30504
v 0.35094 4.92534 0.37687
v 0.35595 4.92501 0.36807
v 0.22017 4.53584 0.32459
v 0.19894 4.54325 0.32517
v 0.34139 4.92868 0.37713
v 0.22017 4.53584 0.32459
v 0.34139 4.92868 0.37713
v 0.35094 4.92534 0.37687
v 0.19894 4.54325 0.32517
v 0.18882 4.54990 0.30621
v 0.33683 4.93167 0.36860
v 0.19894 4.54325 0.32517
v 0.33683 4.93167 0.36860
v 0.34139 4.92868 0.37713
v 0.18882 4.54990 0.30621
v 0.19994 4.54915 0.28666
v 0.34184 4.93134 0.35980
v 0.18882 4.54990 0.30621
v 0.34184 4.93134 0.35980
v 0.33683 4.93167 0.36860
v 0.19994 4.54915 0.28666
v 0.22118 4.54174 0.28608
v 0.35140 4.92800 0.35954
v 0.19994 4.54915 0.28666
v 0.35140 4.92800 0.35954
v 0.34184 4.93134 0.35980
v 0.22118 4.54174 0.28608
v 0.23130 4.53509 0.30504
v 0.35595 4.92501 0.36807
v 0.22118 4.54174 0.28608
v 0.35595 4.92501 0.36807
v 0.35140 4.92800 0.35954
v 0.25094 3.86236 0.13538
v 0.22707 3.87185 0.17827
v 0.37404 4.54153 0.09588
v 0.25094 3.86236 0.13538
v 0.37404 4.54153 0.09588
v 0.38479 4.53726 0.07658
v 0.22707 3.87185 0.17827
v 0.17844 3.88349 0.17777
v 0.35216 4.54677 0.09565
v 0.22707 3.87185 0.17827
v 0.35216 4.54677 0.09565
v 0.37404 4.54153 0.09588
v 0.17844 3.88349 0.17777
v 0.15370 3.88564 0.13438
v 0.34103 4.54773 0.07613
v 0.17844 3.88349 0.17777
v 0.34103 4.54773 0.07613
v 0.35216 4.54677 0.09565
v 0.15370 3.88564 0.13438
v 0.17757 3.87614 0.09149
v 0.35177 4.54346 0.05682
v 0.15370 3.88564 0.13438
v 0.35177 4.54346 0.05682
v 0.34103 4.54773 0.07613
v 0.17757 3.87614 0.09149
v 0.22620 3.86451 0.09199
v 0.37365 4.53822 0.05705
v 0.17757 3.87614 0.09149
v 0.37365 4.53822 0.05705
v 0.35177 4.54346 0.05682
v 0.22620 3.86451 0.09199
v 0.25094 3.86236 0.13538
v 0.38479 4.53726 0.07658
v 0.22620 3.86451 0.09199
v 0.38479 4.53726 0.07658
v 0.37365 4.53822 0.05705
v 0.38458 4.53650 0.07559
v 0.37308 4.53471 0.09485
v 0.47781 4.92484 0.18640
v 0.38458 4.53650 0.07559
v 0.47781 4.92484 0.18640
v 0.48298 4.92564 0.17774
v 0.37308 4.53471 0.09485
v 0.35141 4.54070 0.09561
v 0.46806 4.92753 0.18674
v 0.37308 4.53471 0.09485
v 0.46806 4.92753 0.18674
v 0.47781 4.92484 0.18640
v 0.35141 4.54070 0.09561
v 0.34123 4.54849 0.07711
v 0.46348 4.93104 0.17842
v 0.35141 4.54070 0.09561
v 0.46348 4.93104 0.17842
v 0.46806 4.92753 0.18674
v 0.34123 4.54849 0.07711
v 0.35273 4.55028 0.05786
v 0.46865 4.93184 0.16976
v 0.34123 4.54849 0.07711
v 0.46865 4.93184 0.16976
v 0.46348 4.93104 0.17842
v 0.35273 4.55028 0.05786
v 0.37440 4.54428 0.05709
v 0.47840 4.92915 0.16941
v 0.35273 4.55028 0.05786
v 0.47840 4.92915 0.16941
v 0.46865 4.93184 0.16976
v 0.37440 4.54428 0.05709
v 0.38458 4.53650 0.07559
v 0.48298 4.92564 0.17774
v 0.37440 4.54428 0.05709
v 0.48298 4.92564 0.17774
v 0.47840 4.92915 0.16941
v 0.38538 4.54146 0.07654
v 0.37431 4.54898 0.09463
v 0.38703 4.93126 -0.06428
v 0.38538 4.54146 0.07654
v 0.38703 4.93126 -0.06428
v 0.39202 4.92788 -0.07242
v 0.37431 4.54898 0.09463
v 0.35184 4.55002 0.09444
v 0.37692 4.93173 -0.06437
v 0.37431 4.54898 0.09463
v 0.37692 4.93173 -0.06437
v 0.38703 4.93126 -0.06428
v 0.35184 4.55002 0.09444
v 0.34043 4.54353 0.07616
v 0.37179 4.92880 -0.07259
v 0.35184 4.55002 0.09444
v 0.37179 4.92880 -0.07259
v 0.37692 4.93173 -0.06437
v 0.34043 4.54353 0.07616
v 0.35150 4.53600 0.05807
v 0.37677 4.92542 -0.08073
v 0.34043 4.54353 0.07616
v 0.37677 4.92542 -0.08073
v 0.37179 4.92880 -0.07259
v 0.35150 4.53600 0.05807
v 0.37398 4.53497 0.05827
v 0.38688 4.92496 -0.08064
v 0.35150 4.53600 0.05807
v 0.38688 4.92496 -0.08064
v 0.37677 4.92542 -0.08073
v 0.37398 4.53497 0.05827
v 0.38538 4.54146 0.07654
v 0.39202 4.92788 -0.07242
v 0.37398 4.53497 0.05827
v 0.39202 4.92788 -0.07242
v 0.38688 4.92496 -0.08064
vn 0.91410 0.06556 0.40014
vn 0.91446 0.06566 0.39930
vn 0.40283 0.06570 0.91291
vn 0.40216 0.06562 0.91321
vn -0.41003 0.06545 0.90972
vn -0.40986 0.06547 0.90980
vn -0.90747 0.06556 0.41496
vn -0.90737 0.06559 0.41518
vn -0.90850 0.06566 -0.41269
vn -0.90842 0.06563 -0.41288
vn -0.40400 0.06544 -0.91242
vn -0.40377 0.06541 -0.91252
vn 0.39449 0.06567 -0.91655
vn 0.39382 0.06576 -0.91683
vn 0.91608 0.06578 -0.39556
vn 0.91643 0.06568 -0.39477
vn 0.91530 0.04117 0.40067
vn 0.91566 0.04125 0.39983
vn 0.40336 0.04127 0.91411
vn 0.40269 0.04121 0.91441
vn -0.41057 0.04111 0.91090
vn -0.41039 0.04113 0.91098
vn -0.90866 0.04118 0.41550
vn -0.90856 0.04120 0.41572
vn -0.90969 0.04124 -0.41323
vn -0.90961 0.04122 -0.41342
vn -0.40453 0.04111 -0.91360
vn -0.40429 0.04109 -0.91371
vn 0.39501 0.04125 -0.91775
vn 0.39434 0.04131 -0.91804
vn 0.91728 0.04132 -0.39608
vn 0.91763 0.04125 -0.39528
vn -0.38788 0.85184 -0.35203
vn -0.38788 0.85184 -0.35203
vn 0.13124 0.25067 -0.95914
vn 0.13124 0.25067 -0.95914
vn -0.49960 0.61193 0.61314
vn -0.49960 0.61193 0.61314
vn -0.34885 0.87335 -0.33996
vn -0.34885 0.87335 -0.33996
vn 0.17027 0.27218 -0.94706
vn 0.17027 0.27218 -0.94706
vn -0.53863 0.59041 0.60107
vn -0.53863 0.59041 0.60107
vn 0.63640 -0.69336 0.33800
vn 0.63640 -0.69336 0.33800
vn 0.12270 0.39000 -0.91260
vn 0.12270 0.39000 -0.91260
vn 0.73563 -0.33070 -0.59117
vn 0.73563 -0.33070 -0.59117
vn -0.58947 0.74805 -0.30487
vn -0.58947 0.74805 -0.30487
vn 0.16963 0.44470 -0.87947
vn 0.16963 0.44470 -0.87947
vn 0.78257 -0.27601 -0.55804
vn 0.78257 -0.27601 -0.55804
vn 0.81220 -0.45720 0.36235
vn 0.81220 -0.45720 0.36235
vn 0.06516 0.55097 -0.83198
vn 0.06516 0.55097 -0.83198
vn 0.87072 0.07034 -0.48673
vn 0.87072 0.07034 -0.48673
vn 0.79890 -0.50405 0.32815
vn 0.79890 -0.50405 0.32815
vn 0.07846 0.59782 -0.79778
vn 0.07846 0.59782 -0.79778
vn 0.88401 0.11719 -0.45253
vn 0.88401 0.11719 -0.45253
vn 0.69690 -0.51912 0.49482
vn 0.69690 -0.51912 0.49482
vn 0.01209 0.00532 0.99991
vn 0.01209 0.00532 0.99991
vn -0.66647 0.54786 0.50563
vn -0.66647 0.54786 0.50563
vn 0.66022 -0.56597 0.49374
vn 0.66022 -0.56597 0.49374
vn -0.02458 -0.04154 0.99883
vn -0.02458 -0.04154 0.99883
vn 0.70315 -0.50101 -0.50456
vn 0.70315 -0.50101 -0.50456
vn 0.62772 -0.59403 0.50309
vn 0.62772 -0.59403 0.50309
vn 0.03327 0.03796 0.99873
vn 0.03327 0.03796 0.99873
vn -0.56573 0.65933 0.49521
vn -0.56573 0.65933 0.49521
vn 0.57027 -0.64872 0.50393
vn 0.57027 -0.64872 0.50393
vn -0.02417 -0.01673 0.99957
vn -0.02417 -0.01673 0.99957
vn -0.62317 0.60464 0.49605
vn -0.62317 0.60464 0.49605
vn 0.70236 -0.59218 0.39498
vn 0.70236 -0.59218 0.39498
vn 0.08120 0.30946 -0.94744
vn 0.08120 0.30946 -0.94744
vn 0.76812 -0.30615 -0.56237
vn 0.76812 -0.30615 -0.56237
vn 0.67148 -0.63904 0.37516
vn 0.67148 -0.63904 0.37516
vn 0.11208 0.35631 -0.92762
vn 0.11208 0.35631 -0.92762
vn 0.79900 -0.25930 -0.54255
vn 0.79900 -0.25930 -0.54255
vn 0.80489 -0.24312 0.54133
vn 0.80489 -0.24312 0.54133
vn 0.11421 0.37138 0.92143
vn 0.11421 0.37138 0.92143
vn -0.67554 0.63792 0.36974
vn -0.67554 0.63792 0.36974
vn 0.77461 -0.28997 0.56205
vn 0.77461 -0.28997 0.56205
vn 0.08393 0.32452 0.94215
vn 0.08393 0.32452 0.94215
vn 0.70582 -0.59107 -0.39045
vn 0.70582 -0.59107 -0.39045
vn -0.88925 0.18616 -0.41782
vn -0.88925 0.18616 -0.41782
vn -0.11083 0.78220 -0.61309
vn -0.11083 0.78220 -0.61309
vn 0.78428 0.58169 -0.21571
vn 0.78428 0.58169 -0.21571
vn -0.90097 0.21485 -0.37694
vn -0.90097 0.21485 -0.37694
vn -0.12255 0.81090 -0.57222
vn -0.12255 0.81090 -0.57222
vn 0.77256 0.61039 -0.17483
vn 0.77256 0.61039 -0.17483
vn 0.83506 0.09274 0.54229
vn 0.83506 0.09274 0.54229
vn 0.10310 -0.51223 0.85263
vn 0.10310 -0.51223 0.85263
vn 0.74888 0.57215 -0.33438
vn 0.74888 0.57215 -0.33438
vn 0.86892 0.02710 0.49421
vn 0.86892 0.02710 0.49421
vn -0.13696 0.57787 -0.80456
vn -0.13696 0.57787 -0.80456
vn 0.71502 0.63779 -0.28631
vn 0.71502 0.63779 -0.28631
vn 0.73445 0.40421 0.54517
vn 0.73445 0.40421 0.54517
vn 0.03857 -0.16171 0.98608
vn 0.03857 -0.16171 0.98608
vn 0.71388 0.53890 -0.44716
vn 0.71388 0.53890 -0.44716
vn 0.77047 0.35019 0.53268
vn 0.77047 0.35019 0.53268
vn 0.07459 -0.21573 0.97360
vn 0.07459 -0.21573 0.97360
vn 0.67786 0.59292 -0.43468
vn 0.67786 0.59292 -0.43468
vn -0.86482 0.26609 -0.42578
vn -0.86482 0.26609 -0.42578
vn -0.00163 -0.54924 0.83566
vn -0.00163 -0.54924 0.83566
vn -0.86626 -0.25614 0.42894
vn -0.86626 -0.25614 0.42894
vn -0.86444 0.32011 -0.38766
vn -0.86444 0.32011 -0.38766
vn 0.00201 0.60326 -0.79754
vn 0.00201 0.60326 -0.79754
vn -0.86664 -0.31016 0.39082
vn -0.86664 -0.31016 0.39082
vn -0.85911 0.33186 -0.38961
vn -0.85911 0.33186 -0.38961
vn 0.01242 0.63283 -0.77419
vn 0.01242 0.63283 -0.77419
vn -0.86991 -0.26816 0.41394
vn -0.86991 -0.26816 0.41394
vn -0.85587 0.39749 -0.33090
vn -0.85587 0.39749 -0.33090
vn 0.01567 0.69846 -0.71547
vn 0.01567 0.69846 -0.71547
vn -0.87316 -0.33379 0.35522
vn -0.87316 -0.33379 0.35522
vn 0.85089 0.05280 0.52269
vn 0.85089 0.05280 0.52269
vn 0.07270 -0.45867 0.88563
vn 0.07270 -0.45867 0.88563
vn 0.78845 0.48446 -0.37900
vn 0.78845 0.48446 -0.37900
vn 0.87141 -0.00122 0.49056
vn 0.87141 -0.00122 0.49056
vn 0.09322 -0.51269 0.85350
vn 0.09322 -0.51269 0.85350
vn 0.76793 0.53848 -0.34687
vn 0.76793 0.53848 -0.34687
vn -0.77041 0.51060 -0.38178
vn -0.77041 0.51060 -0.38178
vn -0.07740 -0.42154 0.90350
vn -0.07740 -0.42154 0.90350
vn -0.83584 0.11607 0.53656
vn -0.83584 0.11607 0.53656
vn -0.74648 0.56462 -0.35210
vn -0.74648 0.56462 -0.35210
vn -0.10133 -0.47556 0.87383
vn -0.10133 -0.47556 0.87383
vn -0.85978 0.06205 0.50689
vn -0.85978 0.06205 0.50689
vn 0.25389 0.87970 0.40208
vn 0.25389 0.87970 0.40208
vn -0.12450 0.15695 0.97973
vn -0.12450 0.15695 0.97973
vn 0.40387 0.71267 -0.57358
vn 0.40387 0.71267 -0.57358
vn 0.30485 0.85953 0.41022
vn 0.30485 0.85953 0.41022
vn -0.07354 0.13678 0.98787
vn -0.07354 0.13678 0.98787
vn 0.35291 0.73284 -0.58172
vn 0.35291 0.73284 -0.58172
vn 0.49814 0.80651 0.31842
vn 0.49814 0.80651 0.31842
vn -0.18118 0.37418 0.90948
vn -0.18118 0.37418 0.90948
vn -0.71257 -0.40251 0.57466
vn -0.71257 -0.40251 0.57466
vn 0.56463 0.74688 0.35123
vn 0.56463 0.74688 0.35123
vn -0.11469 0.31455 0.94229
vn -0.11469 0.31455 0.94229
vn 0.64607 0.46215 -0.60746
vn 0.64607 0.46215 -0.60746
vn 0.73694 0.60827 0.29484
vn 0.73694 0.60827 0.29484
vn -0.12371 0.58407 0.80222
vn -0.12371 0.58407 0.80222
vn -0.87313 0.00267 0.48748
vn -0.87313 0.00267 0.48748
vn -0.76192 -0.55452 -0.33465
vn -0.76192 -0.55452 -0.33465
vn -0.09873 0.53032 0.84203
vn -0.09873 0.53032 0.84203
vn -0.84815 -0.05108 0.52728
vn -0.84815 -0.05108 0.52728
vn -0.64154 -0.56325 -0.52075
vn -0.64154 -0.56325 -0.52075
vn 0.00036 0.03473 -0.99940
vn 0.00036 0.03473 -0.99940
vn 0.66530 0.57110 -0.48085
vn 0.66530 0.57110 -0.48085
vn -0.68833 -0.50950 -0.51634
vn -0.68833 -0.50950 -0.51634
vn -0.04643 0.08848 -0.99500
vn -0.04643 0.08848 -0.99500
vn 0.61851 0.62485 -0.47645
vn 0.61851 0.62485 -0.47645
vn 0.53789 0.64228 0.54603
vn 0.53789 0.64228 0.54603
vn -0.01535 0.07994 -0.99668
vn -0.01535 0.07994 -0.99668
vn 0.55925 0.69240 -0.45588
vn 0.55925 0.69240 -0.45588
vn 0.61130 0.58264 0.53558
vn 0.61130 0.58264 0.53558
vn -0.08876 0.13958 -0.98623
vn -0.08876 0.13958 -0.98623
vn 0.48584 0.75204 -0.44542
vn 0.48584 0.75204 -0.44542
vn 0.61888 0.68049 0.39233
vn 0.61888 0.68049 0.39233
vn -0.11195 0.28945 0.95062
vn -0.11195 0.28945 0.95062
vn -0.75238 -0.36417 0.54892
vn -0.75238 -0.36417 0.54892
vn 0.66197 0.62674 0.41109
vn 0.66197 0.62674 0.41109
vn -0.06886 0.23570 0.96938
vn -0.06886 0.23570 0.96938
vn -0.70929 -0.41792 0.56768
vn -0.70929 -0.41792 0.56768
vn -0.78162 -0.25467 -0.56939
vn -0.78162 -0.25467 -0.56939
vn -0.10337 0.39366 -0.91343
vn -0.10337 0.39366 -0.91343
vn 0.69633 0.62145 -0.35906
vn 0.69633 0.62145 -0.35906
vn -0.81776 -0.20092 -0.53935
vn -0.81776 -0.20092 -0.53935
vn -0.13951 0.44741 -0.88338
vn -0.13951 0.44741 -0.88338
vn 0.66019 0.67520 -0.32901
vn 0.66019 0.67520 -0.32901
vn 0.87510 0.41332 0.25174
vn 0.87510 0.41332 0.25174
vn 0.01906 0.86979 0.49305
vn 0.01906 0.86979 0.49305
vn -0.85523 0.46918 0.22010
vn -0.85523 0.46918 0.22010
vn 0.87350 0.38790 0.29416
vn 0.87350 0.38790 0.29416
vn 0.01747 0.84438 0.53547
vn 0.01747 0.84438 0.53547
vn -0.85683 0.44376 0.26252
vn -0.85683 0.44376 0.26252
vn -0.89178 -0.14275 -0.42936
vn -0.89178 -0.14275 -0.42936
vn -0.10364 -0.68092 -0.72499
vn -0.10364 -0.68092 -0.72499
vn -0.77769 0.56868 0.26797
vn -0.77769 0.56868 0.26797
vn -0.87086 -0.08173 -0.48468
vn -0.87086 -0.08173 -0.48468
vn -0.08272 -0.61990 -0.78031
vn -0.08272 -0.61990 -0.78031
vn -0.79860 0.50766 0.32329
vn -0.79860 0.50766 0.32329
vn -0.81193 0.22917 -0.53689
vn -0.81193 0.22917 -0.53689
vn -0.10790 -0.36486 -0.92479
vn -0.10790 -0.36486 -0.92479
vn -0.68839 0.61962 0.37707
vn -0.68839 0.61962 0.37707
vn -0.78067 0.28035 -0.55854
vn -0.78067 0.28035 -0.55854
vn -0.07664 -0.31368 -0.94643
vn -0.07664 -0.31368 -0.94643
vn -0.71965 0.56844 0.39871
vn -0.71965 0.56844 0.39871
vn 0.82823 0.43875 0.34861
vn 0.82823 0.43875 0.34861
vn 0.05048 -0.60421 -0.79522
vn 0.05048 -0.60421 -0.79522
vn 0.88328 -0.19106 -0.42815
vn 0.88328 -0.19106 -0.42815
vn 0.83736 0.38757 0.38552
vn 0.83736 0.38757 0.38552
vn 0.04136 -0.55303 -0.83213
vn 0.04136 -0.55303 -0.83213
vn 0.87416 -0.13987 -0.46507
vn 0.87416 -0.13987 -0.46507
vn 0.79930 0.53407 0.27549
vn 0.79930 0.53407 0.27549
vn -0.08465 0.69756 0.71151
vn -0.08465 0.69756 0.71151
vn 0.89229 -0.19400 -0.40765
vn 0.89229 -0.19400 -0.40765
vn 0.81600 0.47305 0.33223
vn 0.81600 0.47305 0.33223
vn 0.06795 -0.63654 -0.76824
vn 0.06795 -0.63654 -0.76824
vn 0.87559 -0.13298 -0.46438
vn 0.87559 -0.13298 -0.46438
vn -0.88412 -0.14756 -0.44336
vn -0.88412 -0.14756 -0.44336
vn -0.06441 -0.59183 -0.80348
vn -0.06441 -0.59183 -0.80348
vn -0.81377 0.46986 0.34207
vn -0.81377 0.46986 0.34207
vn -0.87225 -0.09637 -0.47948
vn -0.87225 -0.09637 -0.47948
vn -0.05254 -0.54065 -0.83961
vn -0.05254 -0.54065 -0.83961
vn -0.82564 0.41868 0.37819
vn -0.82564 0.41868 0.37819
vn 0.69949 0.61428 0.36522
vn 0.69949 0.61428 0.36522
vn 0.11121 -0.40073 -0.90942
vn 0.11121 -0.40073 -0.90942
vn 0.82547 0.18795 -0.53224
vn 0.82547 0.18795 -0.53224
vn 0.72903 0.56309 0.38915
vn 0.72903 0.56309 0.38915
vn 0.08166 -0.34955 -0.93335
vn 0.08166 -0.34955 -0.93335
vn 0.79592 0.23914 -0.55617
vn 0.79592 0.23914 -0.55617
vn -0.68348 0.45199 -0.57320
vn -0.68348 0.45199 -0.57320
vn 0.14484 0.30535 0.94116
vn 0.14484 0.30535 0.94116
vn -0.51728 0.77672 0.35935
vn -0.51728 0.77672 0.35935
vn -0.64074 0.49076 -0.59043
vn -0.64074 0.49076 -0.59043
vn 0.10210 0.26658 0.95839
vn 0.10210 0.26658 0.95839
vn -0.56001 0.73795 0.37658
vn -0.56001 0.73795 0.37658
vn -0.71972 0.47884 -0.50270
vn -0.71972 0.47884 -0.50270
vn -0.03630 -0.05512 -0.99782
vn -0.03630 -0.05512 -0.99782
vn -0.65192 0.57496 0.49439
vn -0.65192 0.57496 0.49439
vn -0.65672 0.56083 -0.50416
vn -0.65672 0.56083 -0.50416
vn 0.02670 0.02687 -0.99928
vn 0.02670 0.02687 -0.99928
vn 0.71492 -0.49297 -0.49585
vn 0.71492 -0.49297 -0.49585
vn -0.75709 0.50182 -0.41833
vn -0.75709 0.50182 -0.41833
vn 0.05888 0.29055 -0.95505
vn 0.05888 0.29055 -0.95505
vn 0.79924 -0.24395 -0.54927
vn 0.79924 -0.24395 -0.54927
vn -0.72365 0.56719 -0.39323
vn -0.72365 0.56719 -0.39323
vn 0.09232 0.35592 -0.92994
vn 0.09232 0.35592 -0.92994
vn 0.83268 -0.17858 -0.52417
vn 0.83268 -0.17858 -0.52417
vn 0.83909 -0.15537 0.52133
vn 0.83909 -0.15537 0.52133
vn 0.09343 0.37556 0.92208
vn 0.09343 0.37556 0.92208
vn -0.72955 0.56361 0.38743
vn -0.72955 0.56361 0.38743
vn 0.80685 -0.22074 0.54796
vn 0.80685 -0.22074 0.54796
vn 0.06119 0.31019 0.94870
vn 0.06119 0.31019 0.94870
vn 0.76178 -0.49824 -0.41406
vn 0.76178 -0.49824 -0.41406
vn 0.84247 -0.14120 0.51991
vn 0.84247 -0.14120 0.51991
vn 0.12626 0.45277 0.88264
vn 0.12626 0.45277 0.88264
vn -0.69301 0.63496 0.34141
vn -0.69301 0.63496 0.34141
vn 0.79607 -0.22319 0.56255
vn 0.79607 -0.22319 0.56255
vn 0.07986 0.37078 0.92528
vn 0.07986 0.37078 0.92528
vn -0.73941 0.55297 0.38405
vn -0.73941 0.55297 0.38405
vn -0.75661 0.41180 -0.50790
vn -0.75661 0.41180 -0.50790
vn -0.03276 -0.07355 -0.99675
vn -0.03276 -0.07355 -0.99675
vn -0.70300 0.51804 0.48726
vn -0.70300 0.51804 0.48726
vn -0.71491 0.47718 -0.51108
vn -0.71491 0.47718 -0.51108
vn 0.00893 -0.00818 -0.99993
vn 0.00893 -0.00818 -0.99993
vn 0.74469 -0.45267 -0.49044
vn 0.74469 -0.45267 -0.49044
vn 0.87765 0.22393 0.42378
vn 0.87765 0.22393 0.42378
vn 0.02817 0.56417 0.82518
vn 0.02817 0.56417 0.82518
vn 0.84613 -0.37293 -0.38076
vn 0.84613 -0.37293 -0.38076
vn 0.87097 0.15855 0.46505
vn 0.87097 0.15855 0.46505
vn 0.02149 0.49880 0.86645
vn 0.02149 0.49880 0.86645
vn 0.85282 -0.30755 -0.42204
vn 0.85282 -0.30755 -0.42204
vn -0.85534 0.15926 -0.49298
vn -0.85534 0.15926 -0.49298
vn 0.00116 0.06567 -0.99784
vn 0.00116 0.06567 -0.99784
vn -0.84724 0.14504 0.51103
vn -0.84724 0.14504 0.51103
vn -0.83682 0.26216 -0.48063
vn -0.83682 0.26216 -0.48063
vn 0.01968 0.16858 -0.98549
vn 0.01968 0.16858 -0.98549
vn 0.86576 -0.04214 -0.49868
vn 0.86576 -0.04214 -0.49868
vn -0.86514 0.09994 -0.49148
vn -0.86514 0.09994 -0.49148
vn 0.00102 0.21389 -0.97686
vn 0.00102 0.21389 -0.97686
vn 0.86577 0.08053 -0.49392
vn 0.86577 0.08053 -0.49392
vn -0.86436 0.16678 -0.47440
vn -0.86436 0.16678 -0.47440
vn 0.00180 0.28073 -0.95979
vn 0.00180 0.28073 -0.95979
vn 0.86655 0.14737 -0.47684
vn 0.86655 0.14737 -0.47684
vn 0.82804 0.20589 0.52150
vn 0.82804 0.20589 0.52150
vn -0.02124 0.15646 -0.98746
vn -0.02124 0.15646 -0.98746
vn 0.81493 0.33823 -0.47063
vn 0.81493 0.33823 -0.47063
vn 0.84430 0.15765 0.51215
vn 0.84430 0.15765 0.51215
vn -0.03751 0.20470 -0.97811
vn -0.03751 0.20470 -0.97811
vn 0.79866 0.38647 -0.46128
vn 0.79866 0.38647 -0.46128
vn -0.81276 0.33669 -0.47546
vn -0.81276 0.33669 -0.47546
vn 0.01729 0.12731 -0.99171
vn 0.01729 0.12731 -0.99171
vn -0.82153 0.23350 0.52017
vn -0.82153 0.23350 0.52017
vn -0.79572 0.38492 -0.46762
vn -0.79572 0.38492 -0.46762
vn 0.03433 0.17554 -0.98387
vn 0.03433 0.17554 -0.98387
vn -0.83857 0.18526 0.51233
vn -0.83857 0.18526 0.51233
vn -0.85474 0.12563 -0.50363
vn -0.85474 0.12563 -0.50363
vn 0.01805 0.11819 0.99283
vn 0.01805 0.11819 0.99283
vn -0.82866 0.27724 0.48627
vn -0.82866 0.27724 0.48627
vn -0.83868 0.19247 -0.50948
vn -0.83868 0.19247 -0.50948
vn 0.00199 0.05135 0.99868
vn 0.00199 0.05135 0.99868
vn -0.84472 0.21040 0.49212
vn -0.84472 0.21040 0.49212
vn -0.82387 0.32940 -0.46123
vn -0.82387 0.32940 -0.46123
vn 0.02698 0.22151 -0.97478
vn 0.02698 0.22151 -0.97478
vn -0.84396 0.13200 0.51991
vn -0.84396 0.13200 0.51991
vn -0.81008 0.37763 -0.44851
vn -0.81008 0.37763 -0.44851
vn 0.04078 0.26975 -0.96207
vn 0.04078 0.26975 -0.96207
vn -0.85775 0.08377 0.50719
vn -0.85775 0.08377 0.50719
vn 0.87025 0.16412 0.46447
vn 0.87025 0.16412 0.46447
vn 0.00972 0.38356 0.92347
vn 0.00972 0.38356 0.92347
vn -0.85934 0.24356 0.44969
vn -0.85934 0.24356 0.44969
vn 0.86787 0.11588 0.48308
vn 0.86787 0.11588 0.48308
vn 0.00735 0.33532 0.94208
vn 0.00735 0.33532 0.94208
vn -0.86171 0.19532 0.46830
vn -0.86171 0.19532 0.46830
usemtl bark
f 1//1 2//1 3//1
f 4//2 5//2 6//2
f 7//3 8//3 9//3
f 10//4 11//4 12//4
f 13//5 14//5 15//5
f 16//6 17//6 18//6
f 19//7 20//7 21//7
f 22//8 23//8 24//8
f 25//9 26//9 27//9
f 28//10 29//10 30//10
f 31//11 32//11 33//11
f 34//12 35//12 36//12
f 37//13 38//13 39//13
f 40//14 41//14 42//14
f 43//15 44//15 45//15
f 46//16 47//16 48//16
f 49//17 50//17 51//17
f 52//18 53//18 54//18
f 55//19 56//19 57//19
f 58//20 59//20 60//20
f 61//21 62//21 63//21
f 64//22 65//22 66//22
f 67//23 68//23 69//23
f 70//24 71//24 72//24
f 73//25 74//25 75//25
f 76//26 77//26 78//26
f 79//27 80//27 81//27
f 82//28 83//28 84//28
f 85//29 86//29 87//29
f 88//30 89//30 90//30
f 91//31 92//31 93//31
f 94//32 95//32 96//32
f 97//33 98//33 99//33
f 100//34 101//34 102//34
f 103//35 104//35 105//35
f 106//36 107//36 108//36
f 109//37 110//37 111//37
f 112//38 113//38 114//38
f 115//39 116//39 117//39
f 118//40 119//40 120//40
f 121//41 122//41 123//41
f 124//42 125//42 126//42
f 127//43 128//43 129//43
f 130//44 131//44 132//44
f 133//45 134//45 135//45
f 136//46 137//46 138//46
f 139//47 140//47 141//47
f 142//48 143//48 144//48
f 145//49 146//49 147//49
f 148//50 149//50 150//50
f 151//51 152//51 153//51
f 154//52 155//52 156//52
f 157//53 158//53 159//53
f 160//54 161//54 162//54
f 163//55 164//55 165//55
f 166//56 167//56 168//56
f 169//57 170//57 171//57
f 172//58 173//58 174//58
f 175//59 176//59 177//59
f 178//60 179//60 180//60
f 181//61 182//61 183//61
f 184//62 185//62 186//62
f 187//63 188//63 189//63
f 190//64 191//64 192//64
f 193//65 194//65 195//65
f 196//66 197//66 198//66
f 199//67 200//67 201//67
f 202//68 203//68 204//68
f 205//69 206//69 207//69
f 208//70 209//70 210//70
f 211//71 212//71 213//71
f 214//72 215//72 216//72
f 217//73 218//73 219//73
f 220//74 221//74 222//74
f 223//75 224//75 225//75
f 226//76 227//76 228//76
f 229//77 230//77 231//77
f 232//78 233//78 234//78
f 235//79 236//79 237//79
f 238//80 239//80 240//80
f 241//81 242//81 243//81
f 244//82 245//82 246//82
f 247//83 248//83 249//83
f 250//84 251//84 252//84
f 253//85 254//85 255//85
f 256//86 257//86 258//86
f 259//87 260//87 261//87
f 262//88 263//88 264//88
f 265//89 266//89 267//89
f 268//90 269//90 270//90
f 271//91 272//91 273//91
f 274//92 275//92 276//92
f 277//93 278//93 279//93
f 280//94 281//94 282//94
f 283//95 284//95 285//95
f 286//96 287//96 288//96
f 289//97 290//97 291//97
f 292//98 293//98 294//98
f 295//99 296//99 297//99
f 298//100 299//100 300//100
f 301//101 302//101 303//101
f 304//102 305//102 306//102
f 307//103 308//103 309//103
f 310//104 311//104 312//104
f 313//105 314//105 315//105
f 316//106 317//106 318//106
f 319//107 320//107 321//107
f 322//108 323//108 324//108
f 325//109 326//109 327//109
f 328//110 329//110 330//110
f 331//111 332//111 333//111
f 334//112 335//112 336//112
f 337//113 338//113 339//113
f 340//114 341//114 342//114
f 343//115 344//115 345//115
f 346//116 347//116 348//116
f 349//117 350//117 351//117
f 352//118 353//118 354//118
f 355//119 356//119 357//119
f 358//120 359//120 360//120
f 361//121 362//121 363//121
f 364//122 365//122 366//122
f 367//123 368//123 369//123
f 370//124 371//124 372//124
f 373//125 374//125 375//125
f 376//126 377//126 378//126
f 379//127 380//127 381//127
f 382//128 383//128 384//128
f 385//129 386//129 387//129
f 388//130 389//130 390//130
f 391//131 392//131 393//131
f 394//132 395//132 396//132
f 397//133 398//133 399//133
f 400//134 401//134 402//134
f 403//135 404//135 405//135
f 406//136 407//136 408//136
f 409//137 410//137 411//137
f 412//138 413//138 414//138
f 415//139 416//139 417//139
f 418//140 419//140 420//140
f 421//141 422//141 423//141
f 424//142 425//142 426//142
f 427//143 428//143 429//143
f 430//144 431//144 432//144
f 433//145 434//145 435//145
f 436//146 437//146 438//146
f 439//147 440//147 441//147
f 442//148 443//148 444//148
f 445//149 446//149 447//149
f 448//150 449//150 450//150
f 451//151 452//151 453//151
f 454//152 455//152 456//152
f 457//153 458//153 459//153
f 460//154 461//154 462//154
f 463//155 464//155 465//155
f 466//156 467//156 468//156
f 469//157 470//157 471//157
f 472//158 473//158 474//158
f 475//159 476//159 477//159
f 478//160 479//160 480//160
f 481//161 482//161 483//161
f 484//162 485//162 486//162
f 487//163 488//163 489//163
f 490//164 491//164 492//164
f 493//165 494//165 495//165
f 496//166 497//166 498//166
f 499//167 500//167 501//167
f 502//168 503//168 504//168
f 505//169 506//169 507//169
f 508//170 509//170 510//170
f 511//171 512//171 513//171
f 514//172 515//172 516//172
f 517//173 518//173 519//173
f 520//174 521//174 522//174
f 523//175 524//175 525//175
f 526//176 527//176 528//176
f 529//177 530//177 531//177
f 532//178 533//178 534//178
f 535//179 536//179 537//179
f 538//180 539//180 540//180
f 541//181 542//181 543//181
f 544//182 545//182 546//182
f 547//183 548//183 549//183
f 550//184 551//184 552//184
f 553//185 554//185 555//185
f 556//186 557//186 558//186
f 559//187 560//187 561//187
f 562//188 563//188 564//188
f 565//189 566//189 567//189
f 568//190 569//190 570//190
f 571//191 572//191 573//191
f 574//192 575//192 576//192
f 577//193 578//193 579//193
f 580//194 581//194 582//194
f 583//195 584//195 585//195
f 586//196 587//196 588//196
f 589//197 590//197 591//197
f 592//198 593//198 594//198
f 595//199 596//199 597//199
f 598//200 599//200 600//200
f 601//201 602//201 603//201
f 604//202 605//202 606//202
f 607//203 608//203 609//203
f 610//204 611//204 612//204
f 613//205 614//205 615//205
f 616//206 617//206 618//206
f 619//207 620//207 621//207
f 622//208 623//208 624//208
f 625//209 626//209 627//209
f 628//210 629//210 630//210
f 631//211 632//211 633//211
f 634//212 635//212 636//212
f 637//213 638//213 639//213
f 640//214 641//214 642//214
f 643//215 644//215 645//215
f 646//216 647//216 648//216
f 649//217 650//217 651//217
f 652//218 653//218 654//218
f 655//219 656//219 657//219
f 658//220 659//220 660//220
f 661//221 662//221 663//221
f 664//222 665//222 666//222
f 667//223 668//223 669//223
f 670//224 671//224 672//224
f 673//225 674//225 675//225
f 676//226 677//226 678//226
f 679//227 680//227 681//227
f 682//228 683//228 684//228
f 685//229 686//229 687//229
f 688//230 689//230 690//230
f 691//231 692//231 693//231
f 694//232 695//232 696//232
f 697//233 698//233 699//233
f 700//234 701//234 702//234
f 703//235 704//235 705//235
f 706//236 707//236 708//236
f 709//237 710//237 711//237
f 712//238 713//238 714//238
f 715//239 716//239 717//239
f 718//240 719//240 720//240
f 721//241 722//241 723//241
f 724//242 725//242 726//242
f 727//243 728//243 729//243
f 730//244 731//244 732//244
f 733//245 734//245 735//245
f 736//246 737//246 738//246
f 739//247 740//247 741//247
f 742//248 743//248 744//248
f 745//249 746//249 747//249
f 748//250 749//250 750//250
f 751//251 752//251 753//251
f 754//252 755//252 756//252
f 757//253 758//253 759//253
f 760//254 761//254 762//254
f 763//255 764//255 765//255
f 766//256 767//256 768//256
f 769//257 770//257 771//257
f 772//258 773//258 774//258
f 775//259 776//259 777//259
f 778//260 779//260 780//260
f 781//261 782//261 783//261
f 784//262 785//262 786//262
f 787//263 788//263 789//263
f 790//264 791//264 792//264
f 793//265 794//265 795//265
f 796//266 797//266 798//266
f 799//267 800//267 801//267
f 802//268 803//268 804//268
f 805//269 806//269 807//269
f 808//270 809//270 810//270
f 811//271 812//271 813//271
f 814//272 815//272 816//272
f 817//273 818//273 819//273
f 820//274 821//274 822//274
f 823//275 824//275 825//275
f 826//276 827//276 828//276
f 829//277 830//277 831//277
f 832//278 833//278 834//278
f 835//279 836//279 837//279
f 838//280 839//280 840//280
f 841//281 842//281 843//281
f 844//282 845//282 846//282
f 847//283 848//283 849//283
f 850//284 851//284 852//284
f 853//285 854//285 855//285
f 856//286 857//286 858//286
f 859//287 860//287 861//287
f 862//288 863//288 864//288
f 865//289 866//289 867//289
f 868//290 869//290 870//290
f 871//291 872//291 873//291
f 874//292 875//292 876//292
f 877//293 878//293 879//293
f 880//294 881//294 882//294
f 883//295 884//295 885//295
f 886//296 887//296 888//296
f 889//297 890//297 891//297
f 892//298 893//298 894//298
f 895//299 896//299 897//299
f 898//300 899//300 900//300
f 901//301 902//301 903//301
f 904//302 905//302 906//302
f 907//303 908//303 909//303
f 910//304 911//304 912//304
f 913//305 914//305 915//305
f 916//306 917//306 918//306
f 919//307 920//307 921//307
f 922//308 923//308 924//308
f 925//309 926//309 927//309
f 928//310 929//310 930//310
f 931//311 932//311 933//311
f 934//312 935//312 936//312
f 937//313 938//313 939//313
f 940//314 941//314 942//314
f 943//315 944//315 945//315
f 946//316 947//316 948//316
f 949//317 950//317 951//317
f 952//318 953//318 954//318
f 955//319 956//319 957//319
f 958//320 959//320 960//320
f 961//321 962//321 963//321
f 964//322 965//322 966//322
f 967//323 968//323 969//323
f 970//324 971//324 972//324
f 973//325 974//325 975//325
f 976//326 977//326 978//326
f 979//327 980//327 981//327
f 982//328 983//328 984//328
f 985//329 986//329 987//329
f 988//330 989//330 990//330
f 991//331 992//331 993//331
f 994//332 995//332 996//332
f 997//333 998//333 999//333
f 1000//334 1001//334 1002//334
f 1003//335 1004//335 1005//335
f 1006//336 1007//336 1008//336
f 1009//337 1010//337 1011//337
f 1012//338 1013//338 1014//338
f 1015//339 1016//339 1017//339
f 1018//340 1019//340 1020//340
f 1021//341 1022//341 1023//341
f 1024//342 1025//342 1026//342
f 1027//343 1028//343 1029//343
f 1030//344 1031//344 1032//344
f 1033//345 1034//345 1035//345
f 1036//346 1037//346 1038//346
f 1039//347 1040//347 1041//347
f 1042//348 1043//348 1044//348
f 1045//349 1046//349 1047//349
f 1048//350 1049//350 1050//350
f 1051//351 1052//351 1053//351
f 1054//352 1055//352 1056//352
f 1057//353 1058//353 1059//353
f 1060//354 1061//354 1062//354
f 1063//355 1064//355 1065//355
f 1066//356 1067//356 1068//356
f 1069//357 1070//357 1071//357
f 1072//358 1073//358 1074//358
f 1075//359 1076//359 1077//359
f 1078//360 1079//360 1080//360
f 1081//361 1082//361 1083//361
f 1084//362 1085//362 1086//362
f 1087//363 1088//363 1089//363
f 1090//364 1091//364 1092//364
f 1093//365 1094//365 1095//365
f 1096//366 1097//366 1098//366
f 1099//367 1100//367 1101//367
f 1102//368 1103//368 1104//368
f 1105//369 1106//369 1107//369
f 1108//370 1109//370 1110//370
f 1111//371 1112//371 1113//371
f 1114//372 1115//372 1116//372
f 1117//373 1118//373 1119//373
f 1120//374 1121//374 1122//374
f 1123//375 1124//375 1125//375
f 1126//376 1127//376 1128//376
f 1129//377 1130//377 1131//377
f 1132//378 1133//378 1134//378
f 1135//379 1136//379 1137//379
f 1138//380 1139//380 1140//380
f 1141//381 1142//381 1143//381
f 1144//382 1145//382 1146//382
f 1147//383 1148//383 1149//383
f 1150//384 1151//384 1152//384
f 1153//385 1154//385 1155//385
f 1156//386 1157//386 1158//386
f 1159//387 1160//387 1161//387
f 1162//388 1163//388 1164//388
f 1165//389 1166//389 1167//389
f 1168//390 1169//390 1170//390
f 1171//391 1172//391 1173//391
f 1174//392 1175//392 1176//392
f 1177//393 1178//393 1179//393
f 1180//394 1181//394 1182//394
f 1183//395 1184//395 1185//395
f 1186//396 1187//396 1188//396
f 1189//397 1190//397 1191//397
f 1192//398 1193//398 1194//398
f 1195//399 1196//399 1197//399
f 1198//400 1199//400 1200//400
f 1201//401 1202//401 1203//401
f 1204//402 1205//402 1206//402
f 1207//403 1208//403 1209//403
f 1210//404 1211//404 1212//404
f 1213//405 1214//405 1215//405
f 1216//406 1217//406 1218//406
f 1219//407 1220//407 1221//407
f 1222//408 1223//408 1224//408
f 1225//409 1226//409 1227//409
f 1228//410 1229//410 1230//410
f 1231//411 1232//411 1233//411
f 1234//412 1235//412 1236//412
f 1237//413 1238//413 1239//413
f 1240//414 1241//414 1242//414
f 1243//415 1244//415 1245//415
f 1246//416 1247//416 1248//416
f 1249//417 1250//417 1251//417
f 1252//418 1253//418 1254//418
f 1255//419 1256//419 1257//419
f 1258//420 1259//420 1260//420
f 1261//421 1262//421 1263//421
f 1264//422 1265//422 1266//422
f 1267//423 1268//423 1269//423
f 1270//424 1271//424 1272//424
f 1273//425 1274//425 1275//425
f 1276//426 1277//426 1278//426
f 1279//427 1280//427 1281//427
f 1282//428 1283//428 1284//428
f 1285//429 1286//429 1287//429
f 1288//430 1289//430 1290//430
f 1291//431 1292//431 1293//431
f 1294//432 1295//432 1296//432
f 1297//433 1298//433 1299//433
f 1300//434 1301//434 1302//434
f 1303//435 1304//435 1305//435
f 1306//436 1307//436 1308//436
f 1309//437 1310//437 1311//437
f 1312//438 1313//438 1314//438
f 1315//439 1316//439 1317//439
f 1318//440 1319//440 1320//440
f 1321//441 1322//441 1323//441
f 1324//442 1325//442 1326//442
f 1327//443 1328//443 1329//443
f 1330//444 1331//444 1332//444
f 1333//445 1334//445 1335//445
f 1336//446 1337//446 1338//446
f 1339//447 1340//447 1341//447
f 1342//448 1343//448 1344//448
f 1345//449 1346//449 1347//449
f 1348//450 1349//450 1350//450
f 1351//451 1352//451 1353//451
f 1354//452 1355//452 1356//452
f 1357//453 1358//453 1359//453
f 1360//454 1361//454 1362//454
f 1363//455 1364//455 1365//455
f 1366//456 1367//456 1368//456
f 1369//457 1370//457 1371//457
f 1372//458 1373//458 1374//458
f 1375//459 1376//459 1377//459
f 1378//460 1379//460 1380//460
f 1381//461 1382//461 1383//461
f 1384//462 1385//462 1386//462
f 1387//463 1388//463 1389//463
f 1390//464 1391//464 1392//464
f 1393//465 1394//465 1395//465
f 1396//466 1397//466 1398//466
f 1399//467 1400//467 1401//467
f 1402//468 1403//468 1404//468
f 1405//469 1406//469 1407//469
f 1408//470 1409//470 1410//470
f 1411//471 1412//471 1413//471
f 1414//472 1415//472 1416//472
f 1417//473 1418//473 1419//473
f 1420//474 1421//474 1422//474
f 1423//475 1424//475 1425//475
f 1426//476 1427//476 1428//476
f 1429//477 1430//477 1431//477
f 1432//478 1433//478 1434//478
f 1435//479 1436//479 1437//479
f 1438//480 1439//480 1440//480
f 1441//481 1442//481 1443//481
f 1444//482 1445//482 1446//482
f 1447//483 1448//483 1449//483
f 1450//484 1451//484 1452//484
f 1453//485 1454//485 1455//485
f 1456//486 1457//486 1458//486
f 1459//487 1460//487 1461//487
f 1462//488 1463//488 1464//488
f 1465//489 1466//489 1467//489
f 1468//490 1469//490 1470//490
f 1471//491 1472//491 1473//491
f 1474//492 1475//492 1476//492
f 1477//493 1478//493 1479//493
f 1480//494 1481//494 1482//494
f 1483//495 1484//495 1485//495
f 1486//496 1487//496 1488//496
f 1489//497 1490//497 1491//497
f 1492//498 1493//498 1494//498
f 1495//499 1496//499 1497//499
f 1498//500 1499//500 1500//500
f 1501//501 1502//501 1503//501
f 1504//502 1505//502 1506//502
f 1507//503 1508//503 1509//503
f 1510//504 1511//504 1512//504
f 1513//505 1514//505 1515//505
f 1516//506 1517//506 1518//506
f 1519//507 1520//507 1521//507
f 1522//508 1523//508 1524//508
f 1525//509 1526//509 1527//509
f 1528//510 1529//510 1530//510
f 1531//511 1532//511 1533//511
f 1534//512 1535//512 1536//512
f 1537//513 1538//513 1539//513
f 1540//514 1541//514 1542//514
f 1543//515 1544//515 1545//515
f 1546//516 1547//516 1548//516
f 1549//517 1550//517 1551//517
f 1552//518 1553//518 1554//518
f 1555//519 1556//519 1557//519
f 1558//520 1559//520 1560//520
f 1561//521 1562//521 1563//521
f 1564//522 1565//522 1566//522
f 1567//523 1568//523 1569//523
f 1570//524 1571//524 1572//524
f 1573//525 1574//525 1575//525
f 1576//526 1577//526 1578//526
f 1579//527 1580//527 1581//527
f 1582//528 1583//528 1584//528
f 1585//529 1586//529 1587//529
f 1588//530 1589//530 1590//530
f 1591//531 1592//531 1593//531
f 1594//532 1595//532 1596//532
f 1597//533 1598//533 1599//533
f 1600//534 1601//534 1602//534
f 1603//535 1604//535 1605//535
f 1606//536 1607//536 1608//536
